<svg viewBox="0 0 695 695" xmlns="http://www.w3.org/2000/svg">
  <path id="goggles" style="fill:#fc6300" d="m 299,225.2 c -118,0.9 -146,2.3 -182,8.9 -66,12.4 -89,43.4 -89,123.2 0,46.8 9,75.8 29,98 20,21.3 47,33.3 89,39.3 18,2.6 52,2.7 66,0.1 27,-5.2 49,-20.8 78,-55.4 18,-22 27,-30.3 37,-35.1 11,-5.4 21,-6.1 33,-2.4 12,3.7 21,11.2 37,30.5 18,21 27,31.2 39,40.6 27,21.7 55.6,27.7 106.6,22.3 C 604,488.6 643,462.6 658,418.5 670,379.8 667,312.3 652,279.5 638,250.2 603,234.8 536.6,228.7 506.6,226 400,224.4 299,225.2 Z m -66,38.2 c 84,-2.5 244.6,-1 287.6,2.6 62.4,5.3 89.4,15.4 100.4,37.9 6,12.3 7,18.9 6,52.8 0,35.3 -1,42.1 -8,57.3 -13,26.9 -41,40.8 -93.4,45.4 -29,2.5 -46,-1 -63.6,-13 -9,-6.1 -26,-22.8 -37,-36 -15,-19.7 -29,-32.1 -40,-38.1 -16,-7.9 -37,-10.7 -55,-7.1 -25,5.1 -35,12.3 -66,49.5 -25,29.3 -42,41.1 -67,44.5 -11,1.6 -15,1.6 -35,-0.1 -8,-0.6 -21,-2.6 -29,-4.4 -37,-8.3 -56,-24.3 -64,-54 -3,-10 -4,-64.9 -2,-78.6 2,-12.5 9,-26.6 16,-32.8 20,-16.8 57,-23.1 150,-25.9 z m 449,51.9 c 0,0 -1,15 -1,33.4 0,18.3 1,33.3 1,33.3 1,0 2,-0.9 4,-2.1 6,-4.1 7,-9.5 8,-27.4 1,-20.3 -2,-30 -8,-34.4 -2,-1.5 -4,-2.8 -4,-2.8 z m -671,0 c -2,0 -7,4.7 -9,8.4 -2,3.6 -2,7.7 -2,25 0,22.2 1,26.6 7,31.2 5,3.1 6,2.6 5,-2.2 -2,-11.1 -2,-28.5 -1,-44.3 1,-9.5 1,-17.6 1,-17.9 0,-0.1 -1,-0.2 -1,-0.2 z" />
</svg>
