<svg viewBox="0 0 1031 1031" width="192" height="192" xmlns="http://www.w3.org/2000/svg">
  <path id="bg" style="fill:#000000" d="m 221.5,0.0188 c -6,-0.2 -11.6,1.2002 -17.6,4.2002 C 156.7,28.02 121.4,200.2 140.6,313.3 c 3.5,20.7 10.4,43.4 16.8,55.4 l 4.2,7.8 -4,5.9 C 140.6,407 113.2,469.8 98.3,518 87.3,553.6 76,602 76,613.6 c 0,11.3 38.4,70.6 63.1,97.3 3.3,3.6 4.2,6.1 5.8,17.1 11.6,78.5 86.1,164.2 199,230.2 49.2,28 129.2,61.8 167.3,71.8 7.2,1 13.1,0 32.3,-6 34.7,-11 75.3,-27.8 112.5,-45.8 119,-60 202,-140 229,-221.8 4,-11.8 8,-27.4 8,-33.5 0,-3.4 3,-8.6 15,-25 25,-31.9 50,-71.3 52,-80.4 2,-5.8 -7,-46.4 -17,-82.7 -16,-55.2 -37,-106.2 -61,-145.9 l -7,-12.5 6,-11.6 C 894,335.7 901,295.9 901,243.3 901,189.7 893,135.4 879,89.22 858,17.32 834,-8.581 800,2.819 762,15.22 708,63.52 652,132.9 c -10,12.8 -24.3,32.3 -26.1,35.5 -0.1,0.2 -7.9,-1.2 -17.3,-3 -32,-6.3 -49.3,-7.8 -90,-7.8 -41,0 -61.5,1.7 -92.4,7.9 -13.8,2.7 -16.4,2.9 -17.3,1.3 -2,-3.7 -29.5,-38.9 -41.6,-53.3 C 314.1,49.92 261.3,7.219 227.7,0.7188 c -2.1,-0.4 -4.2,-0.6 -6.2,-0.7 z" />
  <path id="fur" style="fill:#ffffff" d="m 807,55.52 c -7,0 -25,13.4 -50,36.72 -10,10.16 -16,16.86 -19,20.26 -25,26.7 -59,78.9 -66,100.7 -2,6.7 0,24.2 4,33.4 9,17.9 29,33.9 53,42.3 8,2.6 11,2.3 15,-1.2 6,-5.2 1,-13.3 -25,-40.5 -20,-20.2 -19,-19 -8,-36.5 11,-15.9 23,-30.3 37,-43.6 17,-17 27,-20.7 33,-12.5 4,7.5 3,52.2 -3,81.8 l -2,13.7 13,13.7 c 14,15.1 38,43.2 45,53.8 3,3.8 5,6.5 6,6 0,-0.5 2,-5.7 3,-11.5 6,-22.7 7,-34 8,-67.6 1,-36.4 -1,-57.6 -6,-87.6 -4,-25.6 -8,-45.5 -15,-63.86 -9,-26.62 -16,-37.52 -23,-37.52 z m -578.7,0.1 c -2.1,0.1 -3.9,1 -5.9,2.5 -9.3,7.3 -22.9,47.68 -30.9,91.98 -5.8,31.8 -6.9,45.3 -6.8,84.7 0,32.2 0.4,39.5 2.9,54 2.4,13.6 8,35.9 9.1,35.9 0.1,0 4.2,-5.2 9,-11.6 12.6,-16.8 24.5,-30.9 41,-48.5 l 14.5,-15.5 -2.5,-11.9 c -3.8,-17.8 -5.8,-41.3 -5.1,-61.3 0.5,-15.3 1,-18.4 3.3,-21.5 6,-8.2 15.5,-3.9 35.1,15.7 19.1,19.2 41.3,49.6 41.3,56.7 0,2.7 -3.3,7 -13.5,17.8 -27,28.5 -32.8,37.7 -27.2,43.3 3.5,3.5 6.9,3.7 15.6,0.8 22.3,-7.4 42.3,-23.8 51.5,-42.1 3.5,-6.9 6.1,-21.6 5.2,-29.3 C 363.6,205.8 348.4,178.5 327,149.2 300.7,113 267.6,78.82 242.5,61.82 c -6.4,-4.4 -10.6,-6.3 -14.2,-6.2 z M 624.9,315.8 c -3.7,-0.1 -7.1,0 -10.1,0.2 -25.9,2.1 -44.4,10.1 -60.2,26 l -10,10.1 58.6,1 c 32.3,0.5 68.8,1.5 80.8,2.1 12,0.6 25,1.2 29,1.3 l 6,0.2 -6,-6 c -17,-14.7 -37,-26 -54,-30.5 -10,-2.5 -23,-4.2 -34.1,-4.4 z M 412.1,316 c -11.2,0 -22.8,1.1 -31.4,3.2 -21.4,5.3 -43.7,17.8 -57.4,32.3 l -5.4,5.6 10,-0.8 c 5.5,-0.5 32.8,-1.5 60.7,-2.3 27.9,-0.7 62.4,-1.5 76.6,-1.6 l 26,-0.3 -10,-10.2 C 470,330.5 458.7,324 441.6,319.1 434.2,317 423.3,316 412.1,316 Z m 107.3,264.7 c -10.8,0 -16.4,3.9 -37.2,25.8 -50.2,52.9 -76.8,68.8 -118.9,71.1 -25.9,1.4 -64.7,-3.5 -88.3,-11 -16,-5.2 -38.5,-16.9 -50.5,-26.4 -14,-11.1 -24.4,-24.5 -33,-42.6 l -6.9,-14.4 -8,0.7 c -14.1,1.1 -35.3,10.2 -44.9,19.2 -5.2,4.8 -4.7,9.1 2.5,23.3 23,44.3 63.2,89.5 123.5,138.6 7.6,6.2 9.3,11 5,14.5 -1.7,1.4 -4.4,2.5 -6.1,2.5 -7.7,0 -40.7,-14.5 -55,-24.1 -3.2,-2.2 -5.6,-3.1 -5.6,-2.2 0,3.6 13.8,28.9 21,38.5 48.1,64 131.1,123 230.3,164 30.1,13 64.8,25 70.7,25 2.9,0 13.1,-3 22.6,-6 62.1,-21 128.4,-53 176.4,-87 46,-33 86,-71.2 108,-103.1 6,-9.3 16,-30.2 16,-31 -1,-0.3 -6,2.7 -12,6.6 -13,8 -38,18 -46,19 -7,0.7 -11,-2.1 -11,-7 0,-3.3 4,-6.9 22,-21.5 18,-14.1 55,-52.4 70,-70.5 21,-26.7 43,-63.4 43,-71.9 0,-8.8 -35,-27.5 -52,-27.5 -3,0 -4,1.5 -9,12.4 -23,52.6 -80,81.3 -160,81.5 -20,0 -26,-0.4 -36,-2.9 -30.3,-7.7 -55.5,-25.6 -92.3,-65.8 -20.8,-22.7 -27.7,-27.8 -38.3,-27.8 z" />
  <path id="snout" style="fill:#000000" d="m 521.7,654.9 c -25.5,-0.7 -51.1,4.5 -63.2,14.8 -10.7,9.2 -13.6,23.7 -7.4,37 7,14.9 23.6,30.9 42.4,40.6 l 10.4,5.5 v 7.6 c 0,19.5 -17.1,32.9 -44,34.5 -24.6,1.5 -47.4,-9.8 -61.4,-30.4 -2.9,-4.3 -6.4,-8.4 -7.8,-9.2 -7.5,-4 -16.1,1.5 -16.1,10.1 0,6.6 6.9,16.9 19.9,30 12.4,12.5 29.1,21.3 46.1,24.4 14.1,2.4 19.4,2.4 33.2,0.1 13.9,-2.4 25,-6.7 36.3,-14.1 l 8.4,-5.4 8.6,5.4 c 19.1,12 42.1,17.4 61.4,15.1 29,-3.9 51.5,-17.6 67.5,-41.4 7,-10.9 8,-17.3 3,-22.1 -3,-3.6 -9,-4.5 -14,-2.1 -1,0.7 -4,3.8 -5,7 -9.1,14.4 -26.1,26.6 -44.1,31.1 -16.5,4.2 -37.6,0.6 -50.3,-8.7 -8,-5.7 -11.3,-12 -12.1,-22.8 l -0.6,-9.1 5,-2.1 c 9.3,-3.9 26.8,-16.5 35,-25.2 23.9,-25.6 20.6,-51.1 -8.3,-62.7 -12.3,-4.9 -27.6,-7.5 -42.9,-7.9 z" />
  <path id="goggles" style="fill:#fc6300" d="m 470.4,380 c -118,0.9 -146,2.3 -182,8.9 -66,12.4 -89,43.4 -89,123.2 0,46.8 9,75.8 29,98 20,21.3 47,33.3 89,39.3 18,2.6 52,2.7 66,0.1 27,-5.2 49,-20.8 78,-55.4 18,-22 27,-30.3 37,-35.1 11,-5.4 21,-6.1 33,-2.4 12,3.7 21,11.2 37,30.5 18,21 27,31.2 39,40.6 27,21.7 55.6,27.7 106.6,22.3 61,-6.6 100,-32.6 115,-76.7 12,-38.7 9,-106.2 -6,-139 C 809,405 774,389.6 708,383.5 678,380.8 571.4,379.2 470.4,380 Z m -66,38.2 c 84,-2.5 244.6,-1 287.6,2.6 62,5.3 89,15.4 100,37.9 6,12.3 7,18.9 6,52.8 0,35.3 -1,42.1 -8,57.3 -13,26.9 -41,40.8 -93,45.4 -29,2.5 -46,-1 -63.6,-13 -9,-6.1 -26,-22.8 -37,-36 -15,-19.7 -29,-32.1 -40,-38.1 -16,-7.9 -37,-10.7 -55,-7.1 -25,5.1 -35,12.3 -66,49.5 -25,29.3 -42,41.1 -67,44.5 -11,1.6 -15,1.6 -35,-0.1 -8,-0.6 -21,-2.6 -29,-4.4 -37,-8.3 -56,-24.3 -64,-54 -3,-10 -4,-64.9 -2,-78.6 2,-12.5 9,-26.6 16,-32.8 20,-16.8 57,-23.1 150,-25.9 z M 853,470.1 c 0,0 -1,15 -1,33.4 0,18.3 1,33.3 1,33.3 1,0 2,-0.9 4,-2.1 6,-4.1 7,-9.5 8,-27.4 1,-20.3 -2,-30 -8,-34.4 -2,-1.5 -4,-2.8 -4,-2.8 z m -670.6,0 c -2,0 -7,4.7 -9,8.4 -2,3.6 -2,7.7 -2,25 0,22.2 1,26.6 7,31.2 5,3.1 6,2.6 5,-2.2 -2,-11.1 -2,-28.5 -1,-44.3 1,-9.5 1,-17.6 1,-17.9 0,-0.1 -1,-0.2 -1,-0.2 z" />
</svg>
