<?xml version="1.0" encoding="UTF-8" standalone="no"?>
<svg class="img-fluid" width="160.2" height="164.7" viewBox="0 0 5340 5490" version="1.1" xmlns="http://www.w3.org/2000/svg"
  xmlns:svg="http://www.w3.org/2000/svg">
  <path style="fill:#020202" id="black"
    d="m 4465,20 c -71,0 -252,87.004 -321,154.004 -29,28 -71,68.996 -94,90.996 -23,21 -50,55.996 -61,75.996 -10,21 -23,41.004 -29,44.004 -17,11 -125,178 -139,215 -7,19 -30,71 -52,115 -21,44 -47,113.008 -58,153.008 -10,41 -23.01,77.984 -29.01,83.984 -5,5 -98.99,11.012 -212.99,12.012 -200,3 -206.99,4.004 -325.99,39.006 -119,34 -281,101.98 -335,138.98 -14,10 -31.02,18.01 -36.02,18.01 -6,0 -33.99,18 -61.99,41 l -51.99,40.99 -21.02,-20 c -27,-24 -133.99,-91.99 -145.99,-91.99 -5,0 -14,-6 -20,-14 -17,-20 -96,-56 -161,-72 -30,-8 -64,-18 -75,-24 -11,-5 -63,-19 -115,-30.996 -75,-17 -134.01,-23 -278.01,-25 -101,-2 -187.99,-6.004 -191.99,-9.004 -5,-3 -18,-38.008 -31,-78.008 -19,-65 -33.99,-99.992 -100.99,-246.992 -12,-25 -31.01,-58 -43.01,-75 -12,-16 -34,-54.992 -49,-86.992 -15,-31 -36.99,-65 -47.99,-75 C 1367.01,383.008 1347,359 1335,340 1307,296 1225,211 1146,145 1078,88.0001 1017,58 925.996,35 c -58,-15 -70,-14.9961 -130,-0.9961 C 707.996,55.0039 676,72 650,115 c -12,19 -25.004,35 -29.004,35 -4,0 -13.992,12.008 -21.992,28.008 -7,15 -23,40.992 -35,56.992 -11,17 -32.004,57 -44.004,90 -13,33 -29.992,71 -36.992,85 -7,14 -13.008,34 -13.008,45 0,11 -9.004,42 -19.004,70 -50,129 -79.996,286 -110.996,580 -5,50 -14.004,126 -19.004,170 -15,123 10.996,385 50.996,509 l 22.012,69.01 -23.008,61.99 c -18,51 -52.198,81.02 -37.162,166.76 16.419,79.13 15.162,102.24 2.162,117.24 -25.961,41.25 -46.513,86.53 -66.992,121 -39.768,65.65 -80.733,143.25 -105.538,197.34 C 114.348,2636 72.0441,2755.96 44.0039,2880 c -27,119 -24,421 5,575 24,131 47,212.99 65.0001,231.99 6,6 21.996,14.01 35.996,18.01 25,6 27.004,3.01 64.004,-116.99 45,-141 73.992,-213 81.992,-205 4,3 7.004,132.98 9.004,288.98 1,183 6.004,295.01 14.004,318.01 6,19 15.992,69 21.992,110 18,127 100.012,374.99 122.012,366.99 14,-4 19,-14.99 60,-126.99 19,-52 39,-96.01 45,-98.01 5,-1 23.992,28 41.992,65 17,37 36.008,77.01 43.008,88.01 6,11 21.996,40 35.996,65 13,25 39.988,63 57.988,84 18,22 33.008,45 33.008,51 0,6 28.008,40 63.008,76 34,35 74.996,81.01 90.996,102.01 16,21 52,52.99 79.996,71.99 29,19 62,46 76,60 28,30 152,91 224,109 28,8 92,26 141,41 50,15 115,33.99 145,41.99 30,8 71,22 90,30 19,8 69,28.01 110,43.01 41,15 138,59.01 215,98.01 77,38 151,72.99 165,76.99 14,4 48,17 75,30 80,36 164,62.01 250,78.01 120,22 273,20.99 385,-4.01 94,-20 150,-41 285,-105 39,-19 75,-34 80,-34 6,0 78,-33.01 160,-73.01 83,-41 193,-88 245,-105 146,-47 250.01,-81.98 303.01,-103.98 26,-10 73,-23.01 105,-29.01 62,-11 153.99,-63 235.99,-133 123,-105 275,-274.99 312,-347.99 81,-161 109,-208 118,-205 5,2 15.99,24 22.99,50 7,26 19.02,67.98 26.02,93.98 17,60 37,65 80,20 48,-51 69.99,-85.99 87.99,-141.99 78,-243 102,-396.01 105,-673.01 1,-123 5.01,-225.98 7.01,-228.98 8,-8 33.99,58 46.99,120 6,30 17,62.99 25,72.99 8,11 15,26 15,35 0,9 8.01,22.99 18.01,30.99 14,13 21.99,13.01 47.99,2.01 29,-12 33.01,-19.99 47.01,-85.99 19,-86 30.99,-176.02 47.99,-351.02 10,-102 10,-147 0,-220 -13,-96 -57,-283.99 -70,-301.99 -5,-5 -11,-26 -15,-45 -8,-43 -115,-262 -171,-350 -23,-36 -44.01,-72 -48.01,-80 -4,-8 -12.99,-24 -20.99,-35 -13,-18 -12,-26 9,-75 38,-86 29,-235.01 -19,-328.01 -16,-30 -15,-35.98 5,-113.98 37,-143 48,-260.01 38,-388.01 -13,-174 -38,-356 -59,-440 -19,-75 -38,-158 -81,-340 -12,-52 -31,-115 -44,-140 -12,-25 -25,-58 -29,-75 -15,-61 -58.01,-132 -119.01,-195 -53,-55.9999 -72,-69.0078 -130,-88.0078 C 4519.99,29.9922 4479,20 4465,20 Z" />
  <g id="glasses">
    <path style="fill:#c24c06" id="glassesDarkerPartLeft"
      d="m 1555,3401 c -135,-22 -362,-125 -419,-190 -11,-13 -46,-48 -77,-77 -75,-72 -167,-245 -189,-357 l -8,-39 32,6 c 95,20 87,13 101,83 4,18 12,36 19,40 7,5 25,26 39,48 55,87 126,168 174,198 28,18 77,50 109,71 75,50 132,65 269,72 136,7 280,-13 351,-49 66,-33 151,-105 197,-165 36,-48 41,-51 106,-63 37,-6 73,-10 80,-8 20,7 -85,161 -158,231 -74,70 -192,139 -307,178 -67,23 -237,34 -319,21 z" />
    <path style="fill:#c24c06" id="glassesDarkerPartRight"
      d="m 3575,3403 c -53,-7 -178,-54 -259,-96 -68,-36 -216,-156 -216,-175 0,-13 55,-32 93,-32 45,0 117,39 141,75 22,34 51,51 135,80 144,51 289,50 457,0 119,-37 131,-43 244,-141 86,-75 101,-92 123,-147 14,-34 43,-101 66,-149 l 40,-88 h 46 c 40,0 46,2 41,18 -3,10 -13,44 -21,75 -8,32 -23,75 -33,95 -100,205 -212,324 -383,409 -140,69 -197,83 -334,82 -60,-1 -123,-4 -140,-6 z" />
    <path style="fill:#fc6c01" id="glassesMainRight"
      d="m 3653.01,1805 c -105.57,16.34 -209.91,41.09 -298.01,84 -94.76,46.92 -159.25,98.4 -229,171 -72.35,86.73 -158.33,191.88 -201,295 -38,93 -47,146.99 -41,251.99 8,124 52,281.01 96,343.01 10,14 29.01,51 43.01,81 26,59 88.99,128 112.99,125 8,-1 19.99,-8.01 25.99,-14.01 17,-17 39.01,-14.99 73.01,8.01 21.68,14.26 32.66,19.4 38.61,17.01 L 3300,3200 c 18,22 44,47 59,54 50,26 157,58 216,66 85,11 109,11 206,1 85,-9 237,-49.99 293,-77.99 53,-27 223,-182.02 237,-216.02 7,-17 33.99,-80.99 60.99,-140.99 19.9,-44.61 23.5,-64.14 29.51,-87.15 6.08,-1.6 12.49,-7.76 18.5,-18.85 6,-11 16,-17 25,-14 9,4 22,1 29,-6 19,-15 23.95,-104.35 21,-160 -2.34,-44.1 -9.57,-94.86 -16,-131 -11,-104 -10,-114 5,-124 83.54,-46.48 182.4,-64.4 267,-111 38.05,-22.48 73.96,-47.03 99.65,-67.2 25.61,-20.11 40.33,-46.55 52.42,-71.3 17.31,-35.44 30.93,-97.5 16.93,-139.5 -20,-62 -31.99,-62.99 -96.99,-12.99 -105,82 -170.01,114.99 -353.01,177.99 -22.4,8.09 -36.45,14.11 -46.99,19.82 -6.33,0.68 -36.97,12.64 -71.02,29.18 l -62.99,30 6,-53.01 c 6,-48 4,-55.99 -21,-85.99 -40.54,-48.22 -125.87,-106.82 -218,-156.83 -76.36,-41.46 -120.68,-64.9 -184.75,-83.77 -67.92,-18.11 -157.93,-19.88 -218.24,-15.4 z m 43.49,191.62 c 64,0.88 128.5,8.38 169.5,22.38 269,90 435,313 434,581 -1,167 -85.01,340 -223.01,459 -50,42 -80.99,59 -216.99,116 -36,15 -78.01,33.99 -93.01,41.99 -62,33 -216,23.02 -300,-18.98 -32,-16 -126.99,-38.01 -162.99,-38.01 h -25.33 c 0.73,-3.24 1.33,-6.67 1.33,-11.99 0,-12 -15,-38.01 -34,-58.01 -40,-40 -92,-112 -135,-185 -43.99,-75.66 -55.79,-138.52 -60.82,-339.73 6.45,-4.26 9.82,-12.52 9.82,-35.27 0,-26 5.01,-40 13.01,-40 7,0 18.99,-21 25.99,-46 27,-92 108.01,-222 184.01,-295 42,-41 162.99,-107 246.99,-135 39,-12.5 102.5,-18.25 166.5,-17.38 z" />
    <path style="fill:#fc6c01" id="glassesMainLeft"
      d="m 1611.21,1813.81 c -40.45,2.25 -79.96,6.95 -116.21,14.2 -53,11 -212,83.99 -255,115.99 -8,7 -28.01,18 -43.01,26 -15,8 -47,36.01 -70,63.01 -23,28 -53.99,63.99 -67.99,80.99 -65.561,77.98 -152.643,272 -156.109,336.49 -8.118,8.06 -14.1,27.67 -23.887,74.51 -10,44 -18.008,113.01 -18.008,153.01 -0.297,23.79 -0.81,50.41 0.999,59.96 34.253,43.23 54.457,70.61 76.364,99.48 75.951,91.56 135.701,190.03 219.651,274.54 74.77,53.58 159.48,103.48 246.45,136.07 106.79,40.02 216.97,56.75 316.29,56.34 106.21,-1.16 232.19,-54.14 264.29,-69.36 73.14,-35.05 138.32,-100.86 207.66,-189.98 2.43,2.6 7.06,-0.77 16.34,-9.02 10,-9 33.99,-18 52.99,-20 19,-2 40.01,-6 47.01,-10 6,-4 11,-2 11,5 0,18 66.01,-94 73.01,-122 2,-13 13.99,-60 25.99,-103 29.76,-113.24 25.67,-334.73 -0.23,-409.01 7.2,-19.73 45.13,-55.91 58.17,-67.32 33,-29 97.85,-54.21 136.07,-64.67 18.53,-5.07 34.94,-5.03 50,-5 30,0 72.53,9.53 122.53,37.53 39,21 62.32,35.5 86,50.78 27.22,-57 72.72,-133.91 95.41,-163.88 -64.83,-35.22 -158.16,-83.08 -214.96,-94.43 -96.96,-19.25 -179.12,-6.83 -266.6,40.41 -36.17,19.53 -69.85,36.46 -104.87,67.17 -35,30 -70.54,64.65 -75.07,68.59 0.93,-21.43 1.58,-65.07 4.55,-85.17 -41.36,-71.81 -107.55,-140.63 -174.53,-190.42 -43.65,-33.19 -130.55,-85.38 -196.47,-114.58 -76.5,-33.75 -206.43,-48.94 -327.79,-42.19 z M 1644,1985 c 149,1 246,31 385,120 33,21 68,54.99 90,86.99 20,30 45,63 55,75 11,12 34,69.02 52,126.02 53.41,169.16 53.57,302.03 1.3,427.81 -2.44,4.43 -4.7,6.61 -7.3,12.19 -10,23 -29,57 -40,75 l -21.95,31.93 v 0.1 c -10.07,10.25 -13.68,11.01 -26.02,26 -86,102 -146.98,144 -303.98,208 -121.91,73.42 -388.61,-14.29 -558.05,-85.04 -18.46,-7.71 -8.99,-40 -26.99,-59 -128,-128 -213.02,-301 -216.02,-435 -1,-68 2.01,-77 63.01,-206 64,-134 103.99,-199 121.99,-199 6,0 35,-23 65,-50 33,-30 96,-71.01 160,-103.01 66.48,-32.55 133.35,-45.2 207.01,-51.99 z" />
    <path style="fill:#fc6c01" id="glassesTempleLeft"
      d="M 455.996 1939 L 438.008 1971.99 C 418.008 2009.99 416 2058 430 2111 C 442 2155 528.004 2233.99 659.004 2321.99 C 696.12 2346.74 724.581 2363.65 743.477 2372.71 C 749.03 2378.1 755.605 2383.48 763.008 2388.01 C 780.008 2399.01 797 2409 800 2409 C 803 2410 819.992 2370.99 836.992 2321.99 L 870 2235 L 846.992 2218.01 C 838.636 2211.32 830.595 2206.77 823.223 2203.93 C 803.739 2185.77 771.539 2161.59 735 2140 C 649 2089 493.996 1982 475.996 1961 L 455.996 1939 z " />
    <path style="fill:#fe860b" id="glassesReflectionRight"
      d="m 3504,3251 c -33,-10 -69,-23 -80,-28 -10,-5 -45,-16 -77,-23 -89,-21 -152,-83 -264,-262 -44,-71 -63,-157 -62,-280 0,-57 4,-125 7,-153 6,-45 10,-50 32,-50 h 25 l -3,90 c -2,50 1,118 7,152 14,76 79,201 138,267 65,73 179,165 231,188 123,55 276,63 394,22 87,-30 100,-33 105,-18 2,6 -27,26 -64,44 -37,19 -81,40 -98,49 -46,24 -214,25 -291,2 z" />
    <path style="fill:#fe860b" id="glassesReflectionLeft"
      d="m 1243,3092 -32,-33 c -73,-79 -113,-135 -151,-212 -52,-109 -68,-175 -66,-273 2,-77 5,-87 69,-220 38,-80 84,-159 108,-188 41,-47 43,-48 52,-28 6,12 14,22 20,22 5,0 -7,18 -26,40 -47,51 -79,115 -112,225 -25,81 -27,99 -22,185 7,106 29,189 70,268 39,74 179,212 248,244 172,80 307,97 424,51 14,-5 16,-3 10,7 -6,10 -4,12 8,7 25,-10 20,10 -5,25 -86.32,90.85 -469.3,12.49 -595,-120 z" />
  </g>
  <g id="nose">
    <path style="fill:#232323" id="noseMainPartShadow"
      d="m 2537,4470 c -60,-11 -123,-47 -170,-99 -36,-40 -45,-65 -29,-75 4,-3 39,0 78,6 65,10 72,9 134,-17 47,-21 87,-29 145,-33 73,-3 86,-1 148,27 38,17 76,31 84,31 11,0 35.61,23.96 27.61,32.96 -24.74,36.71 -63.78,78.4 -137.61,112.04 -48,21 -72,25 -145,24 -48,-1 -108,-5 -135,-9 z" />
    <path style="fill:#585858" id="noseMainPart"
      d="m 2429.02,3700.12 c -72.32,-2.3 -142.27,23.38 -179.02,69.88 -16,21 -29.97,50 -30,64 -0.1,30.6 -20.16,81.03 23.01,162.99 17.81,26.19 44.35,47.74 62.82,62.01 41.34,31.95 59.32,28.2 99.17,0 70,-51 124.99,-19.99 131.99,74.01 6,79 -27.99,135.99 -95.99,160.99 -24.26,10.68 -51.98,6.3 -77.99,0 -34,-9 -27,11 10,30 66.33,27.84 154.65,12.53 206.99,-9 99,-42 146.99,-42.99 231.99,-6.99 40,17 79.85,32.48 88.01,35 32.85,10.13 50.75,7.42 55.93,-1.29 4.73,-7.97 -1.15,-20.94 -15.93,-33.71 -3.86,-3.33 -25,-16.01 -56,-29.01 -39.9,-18.06 -59.56,-44.65 -69.65,-75.4 -12.48,-47.05 -18.43,-103.41 4.65,-140.59 18.97,-22.83 44.31,-33.54 71.36,-36.1 42.72,-4.04 89.71,12.21 122.65,33.09 25,16 51.98,38 58.98,50 7,11 16,20 20,20 15,0 31.01,-87 32.01,-170 1,-99 -17,-143.01 -83,-203.01 -45,-40 -94.01,-53.99 -149.01,-40.99 -20,5 -127.98,9 -238.98,8 -56.02,4.01 -106.43,1.88 -152.01,-12.01 -23.5,-7.25 -47.87,-11.11 -71.98,-11.87 z" />
    <path style="fill:#737473" id="noseHighlight"
      d="m 2222.08,3822.23 c 14.64,-1.56 24.92,-3.23 36.92,-16.23 54,-58 170,-56 265,4 42,27 59,50 37,50 -49.99,0 -127.45,15.07 -197.93,31.56 -46.74,10.93 -98.74,47.32 -139.31,58.42 -11.81,-39.18 -12.08,-83.96 -1.68,-127.75 z" />
  </g>
  <g id="rightEar">
    <path style="fill:#4c4c4c" id="rightEarOuter2"
      d="m 3985,1031 c -16,-9 -57,-23 -90,-30 -89,-18 -93,-20 -100,-40 -10,-31 25,-143 71,-228 25,-45 58,-109 74,-142 92,-184 276,-382 419,-449 57,-26 142,-33 191,-14 81.97,35.926 -6.52,95.025 18.42,143.913 12.09,53.17 -25.75,101.424 -84.42,145.087 -102,76 -248,250 -326,388 -83,147 -140,245 -142,244 0,0 -14,-8 -31,-18 z" />
    <path style="fill:#585858" id="rightEarOuter1"
      d="m 4780,1739 c -22,-45 -37,-85 -35,-89 3,-5 -2,-11 -11,-14 -13,-5 -14,-15 -9,-49 l 22,-332 -108,-465 -130.42,-432.079 c 15,-10 20.42,-74.921 21.42,-120.921 0,-15 7,-44 15,-64 l 17.96,-38.293 c 16.93,12.818 32.11,25.27 48.82,42.145 47,45 87.22,135.148 129.22,256.148 11,34 25,71 30,82 5,11 15,52 23,90 8,39 28,104 45,145 29,74 48,163 71,330 6,47 16,112 21,146 15,102 11,344 -7,416 -23,91 -70,178 -96,178 -5,0 -26,-37 -48,-81 z" />
    <path style="fill:#afafaf" id="rightEarShadow"
      d="m 4543,1389 c -40,-43 -73,-87 -73,-97 0,-11 19,-29 51,-47 65,-37 77,-55 61,-89 -15,-33 -60,-35 -126,-6 -26,11 -75,22 -110,26 -52,5 -69,3 -95,-12 -17,-10 -31,-23 -31,-28 0,-17 111,-155 158,-196 50,-44 93,-60 167,-60 92,0 125,36 157,169 31,132 20,269 -28,333 -13,18 -30,45 -36,61 -7,15 -15,27 -18,26 -3,0 -38,-36 -77,-80 z" />
    <path style="fill:#d9d8d8" id="rightEarInner"
      d="m 4702,1593 c -61,-94 -81,-121 -92,-128 -18,-11 -11,-53 15,-83 59,-71 76,-168 50,-289 -31,-144 -74,-191 -161,-178 -59,9 -114,52 -198,156 l -68,86 -79,-38 c -43,-22 -84,-39 -92,-39 -7,0 -31,-12 -54,-26 l -40,-27 50,-86 c 27,-47 70,-122 95,-166 79,-141 241,-330 345,-403 l 46,-33 40,51 c 43,54 66,120 81,227 4,38 18,102 29,143 19,67 67,276 107,464 21,96 21,276 1,324 -8,20 -18,49 -21,65 -4,15 -10,27 -15,27 -4,0 -22,-21 -39,-47 z" />
  </g>
  <g id="leftEar">
    <path style="fill:#404040" id="leftEarOuter4"
      d="m 1290,1016 c 0,-21 -110,-206 -163,-275 l -42,-54 -6,-116 c -5,-89 -12,-131 -31,-181 -65,-169 -78,-207 -78,-233 0,-15 2,-27 5,-27 20,0 80,43 139,99 138,133 234,281 388,596 34,72 64,133 66,136 3,6 -190,58 -245,66 -25,4 -33,1 -33,-11 z" />
    <path style="fill:#4c4c4c" id="leftEarOuter3"
      d="M 1027,613 C 955,522 813,380 796,380 c -20,0 -22,-57 -3,-85 8,-11 19,-45 26,-76 C 847,86 846.743,94.6903 887.366,89.8244 958.366,98.8244 992,130 1024,217 c 15,43 37,99 47,124 28,70 40,135 44,237 3,90 2,92 -20,92 -15,0 -37,-18 -68,-57 z" />
    <path style="fill:#656565" id="leftEarOuter2"
      d="m 451,1694 c -45,-95 -53,-141 -53,-284 0,-108 8,-186 39,-364 5,-30 22,-56 76,-113 60,-63 74,-73 103,-73 33,0 34,1 34,38 -1,20 -5,57 -10,82 -14,69 -41,425 -39,510 1,41 -3,87 -9,102 -8,20 -72,119 -107,166 -2,2 -17,-27 -34,-64 z" />
    <path style="fill:#737473" id="leftEarOuter1"
      d="m 437,1037 c 11,-109 42,-306 62,-400 22,-100 84,-280 106,-307 7,-8 28,-44 48,-80 C 712,142 778,90 853,90 h 34 l -26,108 c -15,59 -32,116 -38,127 -20.818,96.843 -103.629,280.533 -138,433 -25,115 -40,161 -56,176 l -21,21 7,-35 7,-35 -65,64 c -36,35 -73,79 -83,97 -30,55 -44,51 -37,-9 z" />
    <path style="fill:#afafaf" id="leftEarShadow"
      d="m 805,1243 c -9,-114 -1,-264 16,-313 23,-67 44,-80 125,-80 64,0 76,3 104,26 30,26 110,169 110,197 0,8 -11,20 -25,27 -21,11 -30,11 -65,-5 -23,-10 -45,-26 -50,-36 -13,-24 -60,-34 -78,-15 -12,12 -13,23 -2,79 19,94 3,122 -117,209 -8,7 -13,-18 -18,-89 z" />
    <path style="fill:#d9d8d8" id="leftEarInner"
      d="m 576,1579 c -13,-61 -12,-110 5,-334 20,-259 23,-280 74,-517 45,-202 81,-315 110,-344 31,-31 76,-31 108,-2 58,54 188,201 254,288 87,116 206,314 201,337 -2,10 -20,21 -48,28 -25,7 -68,24 -96,38 l -51,26 -39,-81 c -49,-101 -89,-138 -148,-138 -31,0 -48,6 -63,23 -39,43 -47,84 -48,254 v 162 l -89,83 c -49,46 -107,110 -127,142 -34,54 -38,57 -43,35 z" />
  </g>
  <g id="mouth">
    <path style="fill:#f9361e" id="tongueOuter"
      d="m 2530,5076 c -47,-12 -95,-27 -106,-34 -12,-6 -44,-19 -70,-28 -90,-30 -233,-180 -194,-204 7,-4 23,-7 34,-5 12,2 59,6 106,9 145,10 222,29 294,75 36,22 71,41 77,41 6,0 28,-15 49,-34 57,-51 146,-74 324,-82 l 148,-7 -15,29 c -16,32 -111,125 -166,164 -19,13 -87,41 -150,62 -138,45 -203,48 -331,14 z m 283,-100 c 53,-14 104,-29 114,-35 30,-17 -33,-36 -73,-22 -17,6 -40,11 -53,11 -12,0 -36,7 -53,16 -25,13 -43,14 -107,6 -42,-6 -101,-20 -131,-31 -31,-11 -79,-20 -110,-20 h -55 l 35,18 c 68,36 207,71 321,80 9,0 60,-10 112,-23 z" />
    <path style="fill:#e76658" id="tongueInner"
      d="m 2591,5019 c -74,-9 -189,-43 -242,-70 -41,-21 -99,-67 -99,-79 0,-16 233,1 290,22 99,35 140,41 169,28 40,-20 109,-33 178,-34 48,-1 68,4 89,20 15,11 29,25 31,31 9,25 -221,94 -307,92 -25,-1 -74,-5 -109,-10 z" />
  </g>
  <g id="rightEye">
    <path id="rightPupil" style="fill:#020202"
      d="m 3600,2841 c -120,-37 -154,-91 -155,-246 0,-121 15,-154 90,-199 44,-26 61,-30 145,-34 127,-6 170,10 170,62 0,31 -3,36 -22,36 -13,0 -42,9 -66,20 -71,32 -92,119 -43,177 21,26 103,73 125,73 12,0 16,10 16,39 0,37 -2,40 -49,60 -51,22 -158,28 -211,12 z" />
    <path style="fill:#00a9e6" id="rightIris"
      d="m 3530,3031 c -76,-21 -161,-62 -189,-93 -35,-37 -98,-170 -111,-232 -34,-167 53,-391 178,-459 99,-54 175,-70 302,-64 96,4 126,9 180,32 110,46 161,104 200,226 19,59 22,85 18,188 -4,109 -7,124 -36,183 -61,124 -118,171 -266,219 -73,24 -187,24 -276,0 z m 251,-232 c 51,-22 64,-39 29,-39 -13,0 -18,-5 -14,-15 4,-8 15,-15 26,-15 30,0 88,-51 108,-94 18,-39 18,-41 0,-77 -22,-43 -62,-77 -99,-86 -14,-3 -34,-13 -45,-22 -17,-15 -17,-16 10,-22 l 29,-6 -40,-18 c -59,-26 -155,-17 -220,22 -69,41 -90,80 -89,168 1,97 28,156 86,186 88,45 145,49 219,18 z" />
    <path style="fill:#fefdfd" id="rightEyeReflection"
      d="m 3751,2734 c -57,-33 -77,-59 -91,-115 -9,-38 -8,-53 7,-95 15,-42 25,-52 66,-73 56,-28 116,-23 169,12 39,27 78,91 78,129 0,81 -77,168 -147,168 -22,-1 -57,-12 -82,-26 z" />
    <path style="fill:#8eb9ca" id="rightEyeShadow"
      d="m 3567,3139 c -53,-12 -99,-38 -94,-52 2,-8 37,-12 108,-14 170,-2 301,-57 424,-178 140,-137 164,-353 59,-527 -49,-80 -144,-165 -234,-207 -74,-35 -76,-35 -212,-36 -76,0 -176.38,-3.64 -175.38,-6.64 1,-15 104.38,-52.36 140.38,-59.36 69,-13 208,-10 262,6 129,40 286,171 343,287 83,169 63,375 -53,549 -53,80 -92,115 -178,163 -137,77 -272,103 -390,75 z" />
    <path style="fill:#e3ecef" id="rightEyeWhite"
      d="m 3435,3079 c -77,-49 -164,-129 -210,-194 -50,-71 -66,-105 -89,-201 -16,-67 -16,-78 -2,-154 25,-134 62,-198 199,-346 36.95,-35.42 90.29,-64.37 128.73,-79.26 54,-20 94.27,-16.74 203.27,-12.74 111,5 127,9 196,40 133,62 246,189 284,322 13,46 16,84 13,165 -7,146 -38,223 -123,306 -123,121 -250,174 -435,181 l -115,5 z m 341,-78 c 147,-48 205,-95 265,-217 44,-89 52,-212 20,-312 -40,-123 -91,-181 -201,-227 -93,-39 -211,-45 -304,-16 -133,41 -195,90 -251,201 -38,75 -58,187 -44,254 12,56 77,190 110,224 46,50 206,109 300,111 26,1 73,-8 105,-18 z" />
  </g>
  <g id="leftEye">
    <path id="leftPupil" style="fill:#020202"
      d="m 1550,2832 c -25,-9 -55,-24 -66,-32 -62,-44 -93,-207 -60,-308 17,-51 32,-65 120,-114 40,-22 145,-23 214,-3 50,15 52,17 52,50 0,30 -5,37 -37,54 -45,22 -68,46 -82,84 -9,23 -7,35 8,66 24,46 94,111 121,111 17,0 20,7 20,40 0,36 -3,41 -36,55 -50,21 -195,19 -254,-3 z" />
    <path style="fill:#00a9e6" id="leftIris"
      d="m 1520,3026 c -89,-26 -137,-56 -203,-126 -86,-91 -102,-138 -102,-305 0,-108 3,-125 27,-177 51,-110 132,-176 271,-223 117,-39 211,-32 333,26 34,16 66,29 72,29 6,0 38,31 70,69 82,95 102,151 102,289 0,98 -3,112 -29,167 -65,134 -147,212 -260,248 -64,20 -214,22 -281,3 z m 254,-221 c 41,-17 47,-35 14,-35 -22,-1 -23,-1 -4,-15 11,-8 28,-15 37,-15 29,0 86,-62 98,-107 13,-48 7,-86 -21,-126 -27,-37 -56,-51 -105,-48 -46,2 -53,-4 -26,-24 15,-11 11,-15 -37,-29 -93,-28 -122,-22 -223,42 -69,44 -85,167 -35,266 11,23 30,48 42,56 63,46 192,63 260,35 z" />
    <path style="fill:#fefdfd" id="leftEyeReflection"
      d="m 1786,2769 c -37,-11 -92,-63 -118,-113 -24,-48 -20,-115 9,-155 25,-33 110,-80 146,-81 39,0 81,24 109,62 19,28 23,45 23,108 0,84 -17,126 -62,158 -36,25 -71,32 -107,21 z" />
    <path style="fill:#8eb9ca" id="leftEyeShadow"
      d="m 1560,3127 c -56,-14 -98,-32 -185,-82 -57,-32 -137,-104 -129,-117 11,-17 80,-8 114,15 19,13 78,43 130,67 86,40 102,44 175,44 60,0 94,-6 135,-22 156,-63 303,-256 317,-417 7,-84 -13,-171 -58,-255 -34,-64 -149,-195 -179,-205 -15,-5 -20,-15 -20,-41 0,-39 -1,-38 37,-22 42.46,18.57 96.46,54.33 138.1,88.28 48.15,30.32 64.38,78.88 88.9,118.72 66,105 102,322 72,438 -23,94 -48,134 -133,221 -82,84 -162,140 -228,160 -60,19 -211,24 -275,9 z" />
    <path style="fill:#e3ecef" id="leftEyeWhite"
      d="m 1565,3081 c -111.12,-19.29 -211.35,-72.26 -255.8,-97.91 -76.72,-44.27 -74.31,-53.01 -107.2,-113.09 -50,-92 -72,-180 -72,-287 0,-82 4,-105 30,-169 55,-138 166,-257 298,-321 71,-35 85,-38 185,-41 108.7,-4.06 215.43,13.6 245.45,36.97 12.69,12.14 41.04,32.49 56.17,45.87 27.17,24.04 115.38,137.16 150.38,207.16 45,90 59,162 53,276 -5,84 -9,101 -46,176 -60,121 -168,227 -272,268 -59,23 -175.37,34.56 -265,19 z m 206,-88 c 113,-36 195,-114 260,-248 37,-77 40,-184 8,-271 -21,-56 -128,-194 -151,-194 -6,0 -38,-13 -72,-29 -34,-16 -87,-35 -119,-42 -49,-11 -66,-10 -120,5 -150,42 -252,120 -305,234 -22,48 -26,71 -27,147 0,134 20,189 102,275 116,123 277,170 424,123 z" />
  </g>
  <g id="betweenEyes">
    <path style="fill:#cbcaca" id="noseRight"
      d="m 2578,3615 c -31,-17 -36,-37 -40,-158 l -3,-77 161.39,-1037.45 c 34.34,3.88 75.03,23.51 95.27,46.33 -2.24,21.48 -11.37,65.08 -14.08,144.12 -5,146 12.42,234 59.42,385 25,81 26,88 20,280 -6,198 -32,387 -58,418 -16,20 -184,19 -221,-1 z" />
    <path style="fill:#e3ecef" id="noseLeft"
      d="M 2536.04,3408.79 C 2527.39,3338.13 2522,3307 2514,3095 c -6,-148 -4,-166 17,-245 19.45,-75 22.18,-174.89 23.26,-262.83 0.8,-65.6 -15.55,-177.08 -12.55,-196.4 32.3,-32.06 78.26,-45.17 106.29,-48.77 16.3,-4.03 42.03,-2.09 50.01,0.84 L 2699,2865 c 1,389 -1,531 -10,541 -15,18 -123.18,9.24 -152.96,2.79 z" />
  </g>
  <path style="fill:#232323" id="fur33"
    d="m 2612,1783 c -65,-87 -139,-159 -341,-331 -176,-150 -268,-210 -391,-253 -133,-47 -220,-61 -310,-50 -102,13 -222,43 -305,76 -36,15 -76,25 -91,23 l -25,-3 33,-35 c 52,-53 147,-107 250,-141 85,-29 108,-32 264,-37 252,-7 445,27 638,113 122,55 181,92 274,167 39,32 73,58 76,58 3,0 30,-22 61,-49 89,-78 190,-142 263,-167 37,-12 99,-35 137,-49 162,-63 184,-66 395,-62 190,3 198,4 293,36 66,23 97,38 97,49 0,13 -15,14 -104,9 -175,-11 -362,26 -511,100 -86,43 -217,128 -269,174 -70,61 -183,205 -253,323 -63,108 -70,115 -99,116 -27,0 -38,-9 -82,-67 z" />
  <path style="fill:#404040" id="fur32"
    d="m 705,2011 c -28,-20 -72,-54 -97,-75 l -47,-39 51,-100 c 94,-183 166,-275 276,-354 34,-25 62,-48 62,-52 0,-5 24,-25 53,-45 28,-20 86,-60 128,-90 153,-108 443,-169 623,-131 208,44 323,106 547,297 202,172 276,244 341,330 l 51,68 72,-120 c 75,-123 173,-249 246,-314 52,-48 184,-134 274,-179 152,-76 347,-113 532,-102 100,6 121,11 185,41 96,47 322,218 433,329 50,50 120,135 157,190 63,94 118,206 118,239 0,18 -40,40 -118,67 -63,22 -72,23 -72,9 0,-22 -137,-230 -203,-308 -135,-160 -293,-286 -414,-332 -86,-33 -203,-38 -271,-12 -64,25 -126,71 -167,125 -23,31 -43,44 -85,57 -194,59 -343,206 -449,443 -29,65 -32,67 -53,56 -35.72,-15.96 -70.86,-27.97 -97,-36 -60.72,-18.64 -133.54,-13.87 -200,-8 -27.88,2.46 -73.82,14.11 -82,18 -9.18,4.37 -13.8,6.64 -18.33,8.13 -24.81,-11.36 -42.56,-15.41 -82.67,-89.13 -112,-205 -252,-328 -445,-394 -85,-29 -93,-29 -223,-24 -169,6 -321,44 -359,89 -7,10 -24,17 -37,17 -13,0 -24,5 -24,11 0,27 -91,88 -157,105 -131,34 -307,170 -368,286 l -30,56 z" />
  <path style="fill:#4c4c4c" id="fur31"
    d="m 825,2095 c -62,-45 -129,-101 -108,-91 6,4 24,-17 43,-51 58,-102 210,-226 332,-269 23,-8 47,-19 55,-25 9,-8 13,-8 13,-1 0,6 7,9 15,6 11,-5 15,1 15,18 0,17 -20,47 -59,89 -91,100 -211,297 -211,348 0,32 -27,25 -95,-24 z" />
  <path style="fill:#4c4c4c" id="fur30"
    d="m 4374,1971 c -22,-25 -59,-71 -81,-101 -38,-52 -217,-225 -272,-263 -46,-32 -119,-67 -208,-99 l -86,-31 -174,6 c -95,4 -173,5 -173,3 0,-4 14,-19 104,-114 17,-18 56,-45 86,-60 51,-25 64,-27 180,-27 107,1 134,4 183,24 124,49 280,175 414,333 76,90 202,285 206,319 2,18 -8,25 -48,40 -72,25 -85,22 -131,-30 z" />
  <path style="fill:#585858" id="glassesShadow6"
    d="m 3725,3634 c -126,-12 -278,-39 -335,-60 -36,-13 -87,-24 -113,-24 -26,0 -47,-4 -47,-10 0,-5 -61,-71 -135,-146 -74,-76 -135,-145 -135,-154 0,-9 11,-23 25,-30 22,-12 28,-11 48,7 12,11 54,39 92,62 39,23 99,60 135,82 99,62 169,88 303,110 130,22 208,22 334,-2 l 72,-13 49,45 c 38,34 50,51 51,75 1,29 -2,31 -51,42 -59,12 -231,22 -293,16 z" />
  <path style="fill:#656565" id="glassesShadow5"
    d="m 2080,3601 c -14,-9 -46,-25 -72,-35 -58,-21 -112,-57 -116,-76 -2,-11 22,-24 75,-45 43,-16 98,-39 123,-51 56,-28 164,-122 217,-189 22,-28 47,-56 56,-64 21,-16 24,-9 31,69 2,30 8,70 11,88 7,31 3,38 -41,84 -27,27 -83,74 -124,103 -75,53 -76,53 -72,94 4,41 4,41 -29,41 -19,0 -45,-9 -59,-19 z" />
  <path style="fill:#888887" id="glassesShadow4"
    d="m 2157,3746 c -3,-7 -23,-17 -44,-20 -21,-4 -66,-16 -100,-26 -45,-14 -109,-21 -240,-25 -186,-7 -334,-29 -438,-65 -120,-41 -314,-162 -358,-222 -19,-26 -20,-29 -5,-45 9,-10 28,-30 42,-45 14,-16 29,-28 34,-28 5,0 43,25 85,55 96,69 159,101 270,136 77,25 105,29 230,31 89,2 168,-2 212,-11 70,-13 71,-13 108,12 21,14 59,34 85,43 46.72,22.34 69.73,22.68 78.97,24.28 54.67,16.41 100.03,41.33 144.28,67.26 -0.9,13.26 28.38,32.14 18.27,38.52 -9.05,6.6 -21.93,17.59 -35.52,29.94 -67.05,60.95 -71,64 -76,64 -3,0 -8,-6 -11,-14 z" />
  <path style="fill:#888887" id="glassesShadow3"
    d="m 3995,3590 c 3,-5 15,-10 25,-10 14,0 7,-12 -30,-46 -28,-26 -50,-52 -50,-58 0,-6 38,-23 85,-38 58,-19 111,-46 167,-84 46,-32 91,-57 101,-56 23,1 117,95 117,116 0,33 -155,130 -273,172 -46,16 -151,19 -142,4 z" />
  <path style="fill:#888887" id="glassesShadow2"
    d="m 4414,3286 -60,-62 59,-79 c 76,-103 121.77,-198.59 139.77,-240.59 35.99,-84.31 60.66,-188.36 61.12,-263.33 1.85,-39.38 19.11,-17.08 38.11,-19.08 25,-3 25,-1 32,83 10,119 -1,239 -26,300 -46,111 -99,219 -133,269 -19,29 -35,58 -35,65 0,19 -13,10 -76,-53 z" />
  <path style="fill:#888887" id="glassesShadow1"
    d="m 848,3222 c -71,-138 -99,-231 -105,-345 4.57,-28.28 7.302,-58.24 29.469,-87.36 8.449,44.18 23.195,87.17 43.745,139.55 29.749,75.57 75.806,146.58 136.786,229.81 l 39,53 -49,50 -50,49 z" />
  <path style="fill:#888887" id="fur26"
    d="m 422.773,2292.07 c -6.015,-1.12 -11.281,-0.81 -15.781,0.94 -16,6 -82.996,118.99 -115.996,196.99 -13,30 -43.988,97 -67.988,149 -65,138 -97.012,290 -107.012,506 0.534,38.41 -4.535,75.62 -1.992,103.01 2,31 9.992,97.99 16.992,146.99 l 13.008,90 17.988,-60 c 3.942,-12.11 6.916,-23.57 9.317,-34.9 1.57,-5.36 3.137,-8.78 4.687,-17.09 4,-21 12.996,-52 20.996,-70 7,-19 13.008,-70 13.008,-120 1,-152 51.008,-373 123.008,-535 43,-98 76,-148 145,-220 l 53.984,-57.01 -33.984,-30 c -32.25,-29.25 -57.188,-45.55 -75.235,-48.93 z" />
  <path style="fill:#9c9d98" id="fur25"
    d="m 5175,3385 c -13,-51 -109,-237 -164,-318 l -52,-77 h 38 c 29,0 45,8 75,37 37,36 38,36 38,13 -1,-91 -75,-324 -131,-417 -44,-72 -53,-133 -20,-133 50,0 185,273 230,464 29,121 30,364 3,436 l -10,25 z" />
  <path style="fill:#afafaf" id="fur24"
    d="m 2473,5340 c -93,-22 -202,-79 -320,-166 -43,-32 -100,-74 -128,-95 -61,-45 -338,-180 -495,-242 -307,-120 -413,-168 -544,-247 -152,-92 -175,-115 -239,-244 -42,-85 -120,-266 -137,-319 -12,-39 -46,-64 -72,-55 -7,3 -21,34 -31,69 -26,93 -49,143 -58,127 -6,-11 -15,-64 -45,-268 -3,-25 -8,-135 -11,-245 -6,-248 5,-332 51,-387 27,-32 37,-38 73,-38 47,0 44,-7 63,135 20,139 42,234 55,229 6,-3 17,-20 24,-39 7,-19 18,-40 24,-47 7,-7 25,-30 40,-50 21,-29 35,-38 58,-38 33,0 34,1 15,38 -8,15 -22,67 -31,115 -16,77 -16,99 -5,180 7,50 23,126 36,167 42,129 169,263 269,284 l 30,6 -35,-31 c -20,-18 -26,-26 -13,-20 12,6 40,11 63,11 23,0 69,7 103,15 34,8 114,25 177,38 112,22 114,23 121,52 7,34 30,79 93,180 60,97 175,196 291,251 93,43 129,74 184,156 66,98 137,164 224,206 207,102 390,134 527,93 186,-57 274,-114 416,-273 98,-110 115,-124 182,-155 159,-72 328,-249 383,-401 46,-126 37,-119 117,-101 76,16 220,-25 289,-82 7,-7 31,-15 54,-19 38,-7 39,-7 23,11 -8.47,9.24 -12.94,15.52 -13.06,19.17 -0.19,5.83 10.7,4.98 34.06,-1.17 41.99,-11.05 111,-72 151,-133 19,-28 48,-71 65,-95 40,-54 79,-168 79,-228 0,-24 5,-53 11,-65 17,-32 59,-243 59,-299 v -50 l 37,3 c 31,3 38,8 46,33 5,17 28,80 52,140 51,129 66,189 100,389 29,173 30,194 10,278 -27,110 -36,138 -44,138 -5,0 -19,-37 -31,-82 -12,-46 -29,-100 -37,-121 -15,-37 -17,-38 -62,-35 l -46,3 -30,90 c -17,50 -41,125 -53,168 -17,58 -37,97 -76,150 -69,92 -91,113 -168,151 -35,18 -103,53 -151,79 -49,25 -105,51 -125,58 -21,6 -56,22 -80,35 -23,12 -105,43 -181,68 -156,50 -217,78 -310,143 -36,25 -87,55 -115,67 -55,25 -209,130 -240,165 -30,34 -203,111 -286,127 -125,25 -320,27 -417,4 z" />
  <path style="fill:#bebebe" id="fur23"
    d="m 4917,4103 c -4,-3 -7,-21 -7,-39 0,-40 -44,-303 -66,-394 -9,-36 -35,-114 -59,-175 -24,-60 -47,-122 -51,-138 -11,-46 -24,-41 -24,11 0,95 -66,362 -90,362 -4,0 -10,-27 -14,-60 -10,-84 -38,-161 -96,-257 -28,-46 -50,-91 -50,-100 0,-9 16,-40 35,-68 37,-56 93,-171 135,-274 21,-53 28,-61 45,-55 11,4 40,6 65,5 44,-1 45,-1 61,41 9,24 33,81 54,128 110,255 138,531 91,907 -13,103 -17,119 -29,106 z" />
  <path style="fill:#bebebe" id="fur22"
    d="m 606,3678 c -13,-40 -46,-200 -50,-243 -3,-27 -10,-77 -16,-110 -5,-33 -10,-61 -10,-62 0,-2 -5,-3 -11,-3 -6,0 -29,20 -51,45 -80,91 -79,63 10,-225 30,-98 47,-140 98,-247 6.751,-14.75 11.897,-26.09 16.752,-34.6 3.287,-5.76 29.288,-20.56 54.037,-21.31 19,0 39.211,-14.09 53.211,-22.09 39,-22 68.817,-14.15 68.817,12.85 1.336,7.49 2.475,14.84 3.554,22.14 -27.606,56.02 22.963,241.52 104.629,401.01 l 45,87 -46,56 c -25,31 -50,66 -57,78 -7,12 -26,36 -43,53 -44,44 -65,71 -84,113 -9,20 -20,39 -23,42 -3,3 -12,18 -20,34 -16,33 -37,45 -43,24 z" />
  <path style="fill:#bebebe" id="fur21"
    d="m 179,3295 c -8,-163 13,-337 61,-500 54,-186 121,-313 214,-404 l 44,-43 51,28 c 61,33 61,37 -9,129 -26,35 -51,77 -55,93 -8,40 15,94 54,123 17,12 31,28 31,35 0,7 -22,32 -49,56 -98,87 -253,310 -301,433 -29,75 -40,88 -41,50 z" />
  <path style="fill:#bebebe" id="fur20"
    d="m 5092,3118 c -36,-52 -89,-104 -98,-95 -3,3 -32,-24 -64,-59 l -58,-65 29,-31 c 51,-56 47,-128 -14,-230 -43,-74 -115,-137 -214,-187 -24,-12 -43,-27 -43,-34 0,-17 151,-87 188,-87 22,0 39,11 69,43 63,68 107,138 93,147 -8,5 0,26 29,73 70,115 128,323 133,481 4,95 -8,105 -50,44 z" />
  <path style="fill:#888887" id="noseShadow3"
    d="m 3142,3748 c -59,-61 -87,-78 -195,-117 -26,-10 -27,-12 -12,-34 8,-14 13,-32 9,-41 -11,-29 51,-19 135,24 44,22 82,44 86,50 25,41 75,-30 67,-96 -3,-30 -1,-44 7,-44 6,0 14,7 18,16 4,11 8,12 13,4 6,-9 22,-8 66,6 l 59,19 3,56 c 3,51 0,58 -31,90 -19,19 -62,48 -95,65 -38,18 -62,36 -64,48 -2,15 -16,5 -66,-46 z" />
  <path style="fill:#cbcaca" id="noseShadow2"
    d="m 2445,4646 c -68,-22 -104,-45 -166,-109 -73,-74 -119,-150 -119,-194 0,-48 30,-43 80,15 48,55 147,135 205,165 22,11 72,30 110,43 41,13 70,28 70,36 0,17 -82,58 -115,57 -14,0 -43,-6 -65,-13 z" />
  <path style="fill:#cbcaca" id="noseShadow1"
    d="m 2795,4646 c -16,-8 -39,-21 -50,-29 -19,-15 -17,-17 48,-46 148,-68 212,-118 322,-253 122,-150 158,-293 109,-433 -13,-38 -29,-81 -36,-95 -7,-14 -14,-28 -16,-33 -2,-4 14,-15 34,-23 l 38,-16 36,38 c 46,49 96,169 111,265 7,43 9,112 5,164 -5,75 -12,102 -40,160 -73,148 -170,236 -306,279 -100,32 -214,42 -255,22 z" />
  <path style="fill:#cbcaca" id="fur11"
    d="m 2600,5374 c -175,-27 -258,-53 -430,-136 -79,-38 -196,-92 -260,-120 -63,-28 -119,-57 -123,-65 -4,-7 -15,-13 -22,-13 -8,0 -15,-7 -15,-15 0,-8 6,-15 13,-15 8,0 22,-9 32,-20 14,-15 31,-20 72,-20 60,0 109,20 188,79 28,21 85,63 128,95 179,133 335,191 494,184 40,-1 75,1 79,5 4,4 20,7 36,7 34,0 38,25 6,34 -24,6 -155,6 -198,0 z" />
  <path style="fill:#d9d8d8" id="fur10"
    d="m 2721,5361 c -21,-14 4,-41 38,-41 100,0 338,-87 387,-141 31,-35 185,-140 240,-165 28,-12 79,-42 115,-67 93,-65 154,-93 310,-143 76,-25 158,-56 181,-68 24,-13 59,-29 80,-35 20,-7 76,-33 125,-58 48,-26 116,-61 150,-78 35,-18 90,-57 122,-88 55,-53 81,-68 81,-49 0,25 -162,238 -203,265 -12,9 -47,39 -78,69 -98,93 -300,178 -669,284 -30,9 -118,46 -195,84 -77,37 -154,72 -170,78 -17,5 -48,21 -69,36 -21,14 -44,26 -50,26 -6,0 -28,11 -48,25 -61,42 -177,75 -260,75 -40,0 -79,-4 -87,-9 z" />
  <path style="fill:#d9d8d8" id="fur9"
    d="m 1668,5020 c -115,-26 -323,-97 -403,-138 -38,-19 -84,-40 -102,-46 -35,-12 -243,-209 -243,-230 0,-7 -10,-21 -21,-32 -40,-35 -82,-105 -71,-116 7,-7 19,-4 39,9 15,11 86,55 157,98 121,73 224,119 541,244 136,54 385,172 385,184 0,4 -24,7 -53,7 -41,0 -58,5 -72,20 -22,24 -53,24 -157,0 z" />
  <path style="fill:#d9d8d8" id="fur8"
    d="m 884,2127 c -16,-44 103,-257 211,-378 39,-43 100,-100 136,-126 36,-26 79,-58 95,-71 40,-31 100,-57 164,-72 30,-7 75,-17 100,-22 25,-6 105,-10 179,-8 116,2 144,5 218,30 193,64 336,194 447,405 25,48 49.11,98.29 49.11,105.29 -4.67,2.02 -28.85,12.93 -60.85,28.93 L 2361,2053 l -28,-34 c -74,-89 -172,-176 -233,-206 -191,-95 -289,-118 -469,-110 -156,7 -206,19 -364,92 -147,67 -290,201 -338,318 -12,28 -36,36 -45,14 z" />
  <path style="fill:#d9d8d8" id="fur7"
    d="m 2910,2022.14 c -21,-9 -37.42,-15.52 -41.57,-17.4 0,-17 64.57,-152.74 107.57,-225.74 61,-105 169,-206 276,-259 111,-54 191,-70 369,-70 137,0 150,2 228,30 84,31 156,65 202,97 52,36 242,219 271,261 17,24 54,71 84,104 30,33 54,64 54,69 0,5 -11,9 -24,9 -4.28,0 -11.05,-2.29 -19.28,-6.16 -41.12,-41.33 -96.84,-80.84 -136.2,-111.45 -49.39,-38.23 -148.91,-102.05 -204.52,-128.39 -130.98,-62.04 -236,-87 -366,-87 -128,0 -270,27 -349,66 -154,77 -213,116 -342,229 -36,32 -68,58 -70,57 -2,-1 -19,-8.86 -39,-16.86 z" />
  <path style="fill:#fefdfd" id="fur6"
    d="m 2160,4684 c -60,-8 -161,-45 -263,-96 -98,-49 -181,-118 -249,-208 -34,-46 -105,-214 -112,-267 l -5,-42 42,-3 c 35,-2 43,-7 45,-25 3,-19 -6,-27 -50,-47 -29,-14 -82,-32 -118,-42 -36,-9 -89,-23 -118,-31 -42,-11 -56,-12 -68,-2 -23,19 5,42 104,84 48,21 90,40 94,44 4,3 8,28 9,55 2,28 11,74 21,104 10,31 18,57 18,59 0,13 -156,-11 -330,-53 -36,-8 -70,-14 -75,-12 -14,4 -115,-73 -154,-118 -106,-120 -148,-356 -96,-531 24,-82 103,-213 127,-213 5,0 21,14 35,31 48,57 238,171 349,209 103,36 251,58 437,65 129,4 196,11 240,25 34,10 80,22 102,27 49,11 54,29 21,80 -51,77 -72,259 -42,369 15,56 67.76,158.99 91.98,186.99 -4.42,1.13 -7.31,3.34 -9.98,7.01 -16.45,22.66 46.6,113.89 101,165 44.22,40.68 137,110 210,121 24,3 43,10 43,14 0,9 -47,27 -91,35 -37,7 -269,14 -309,9 z" />
  <path style="fill:#fefdfd" id="fur5"
    d="m 2915,4684 c -41,-7 -115,-35 -115,-44 0,-4 32,-11 72,-15 158,-15 298,-84 379,-186 59,-75 106,-180 113,-255 14,-138 -39,-317 -120,-404 l -41,-45 50,-25 c 28,-14 66,-40 84,-59 27,-28 33,-42 33,-78 0,-23 2,-43 4,-43 2,0 28,9 58,19 79,28 268,54 395,53 124,-1 249,-28 359,-77 68,-31 179,-107 193,-133 5,-9 11,-15 13,-12 112,151 132,204 126,335 -4,75 -11,104 -42,178 -44,105 -78,155 -152,220 -19.46,17.52 -43.83,40.93 -42.93,46.54 -29.67,16.41 -48.75,31.61 -74.14,46.05 -74.23,41.94 -185.92,67.76 -266.93,59.41 -36,-3 -89.67,-15.88 -96.71,-17.31 2.7,-12.2 6.99,-23.05 11.71,-66.69 8,-100 20,-135 55,-165 35,-29 85,-42 104,-27 17,14 86,-13 86,-34 0,-17 -63,-36 -128,-37 -101,-2 -152,56 -176,201 -28,168 -125,321 -278,437 -42.96,31.98 -83.68,44.77 -122,62 -119,53 -178,66 -316,68 -74,1 -148,0 -165,-2 z" />
  <path style="fill:#fefdfd" id="fur4"
    d="m 3144,3669 c -23,-26 -171,-102 -183,-94 -15,9 -18,-18 -10,-110 4,-49 8,-125 8,-167 1,-52 5,-78 13,-78 17,0 277,267 288,296 23,59 3,126 -44,158 -33,21 -49,20 -72,-5 z" />
  <path style="fill:#fefdfd" id="fur3"
    d="m 2278.99,3666.44 c -36.67,-31.3 -69.94,-52.44 -111.92,-75.61 -27.07,-14.94 -53.28,-27.84 -82.03,-36.69 20.73,-11.25 54.65,-40.9 99.96,-79.14 38,-27 102,-81 142,-119 40,-38 75,-67 77,-65 3,2 8,77 12,165 l 7,161 -39,7 c -21,4 -54.15,17.79 -76,27 -14.38,6.06 -25.09,12.27 -29.01,15.44 z" />
  <path style="fill:#fefdfd" id="fur2"
    d="m 4786,2961 c -3,-5 -24,-7 -45,-4 -22,3 -52,2 -67,-1 l -27,-7 6,-82 c -7.49,-59.85 9.65,-188 -39.41,-224.05 1.71,-35.42 1.48,-135.04 -8.59,-168.95 -13,-45 -13,-50 2,-61 9,-7 25,-13 35,-13 42,0 181,88 234,148 13,15 38,54 56,87 30,54 33,68 33,140 0,69 -3,84 -24,113 -14,17 -29,32 -34,32 -5,0 -37,-25 -70,-55 -34,-30 -67,-55 -74,-55 -23,0 -24,20 -2,62 12,23 25,55 30,70 8,28 5,36 -5,19 z" />
  <path style="fill:#fefdfd" id="fur1"
    d="m 511,2753 c -40,-31 -61,-78 -61,-133 0,-53 18,-93 69,-157 22,-29 41,-57 41,-63 0,-16 6,-13 117,52 l 105,63 -9,40 c -4,22 -8,79 -8,127 l 3.872,86.2 L 733,2784 c -19,9 -56,16 -84,16 l -56.308,-1.02 c 6.112,-9.66 10.875,-19.32 15.869,-28.98 4,-16 7.073,-25.28 -1.469,-27.7 C 597.575,2739.61 581,2757 558,2778 c -3.388,2.82 -6.557,5.43 -9.479,7.79 -12.626,-7.92 -21.128,-15.1 -37.521,-32.79 z" />
</svg>
