<?xml version="1.0" encoding="UTF-8" standalone="no"?>
<svg width="160.2" height="164.7" viewBox="0 0 5340 5490" version="1.1" xmlns="http://www.w3.org/2000/svg">
   <path style="fill:#020202" id="blackOutline" d="M 4465.71,35.3377 C 4395.06,28.2983 4213,107.004 4144,174.004 4021.89,308.386 3893.61,425.93 3821,600 c -65.92,126.198 -88.05,230.779 -139.01,351.992 -5,5 -99.01,4.919 -212.99,2.453 -113.21,-2.449 -238.55,22.872 -325.99,48.565 -119,34 -281,101.98 -335,138.98 -58.32,27.46 -100.15,60.7 -150,100 -54.61,-47.86 -121.89,-88.69 -175.9,-121.3 -115.68,-65.87 -237.48,-102.29 -362.11,-131.686 -75,-17 -135.05,-33.299 -279.05,-35.299 C 1739.95,951.705 1654,958 1650,955 1602.37,831.137 1545.08,713.895 1508.02,632.515 1451.96,524.771 1401.86,431.276 1335,340 1307,296 1225,211 1146,145 1078,88.0001 1022.96,55.1801 931.956,32.1801 c -58,-15 -75.96,-12.1762 -135.96,1.8238 C 671.34,57.937 623.383,144.525 564.004,235 553.004,252 532,292 520,325 484.401,392.936 472.84,459.351 450.996,525 400.996,654 371,811 340,1105 c -14.912,145.01 -38.316,305.97 -25.993,433.13 10.317,111.44 46.833,210.91 79.997,314.88 -28.011,42.45 -52.709,95.61 -61.405,138.88 -9.028,65.8 -7.711,117.6 20.011,183.87 -65.603,114.82 -133.909,222.1 -189.144,341.58 C 114.348,2636 72.0441,2755.96 44.0039,2880 c -27,119 -24,421 5,575 24,131 47,212.99 65.0001,231.99 6,6 21.996,14.01 35.996,18.01 25,6 27.004,3.01 64.004,-116.99 45,-141 73.992,-213 81.992,-205 4,3 4.745,133.03 9.004,288.98 4.754,174.08 16.003,293.37 35.996,428.01 18,127 100.012,374.99 122.012,366.99 14,-4 19,-14.99 60,-126.99 19,-52 39,-96.01 45,-98.01 5,-1 25.281,27.4 41.992,65 37.525,84.43 90.092,171.58 136.992,237.01 56.758,85.65 120.681,150.65 187.012,229.01 45.446,53.69 84.376,85.24 155.996,131.99 121.68,79.43 236.44,110.79 365,150 50,15 115,33.99 145,41.99 30,8 71,22 90,30 19,8 69,28.01 110,43.01 41,15 138,59.01 215,98.01 77,38 151,72.99 165,76.99 14,4 48,17 75,30 80,36 164,62.01 250,78.01 120,22 273,20.99 385,-4.01 94,-20 150,-41 285,-105 89.5,-42.47 172.79,-74.29 240,-107.01 83,-41 193,-88 245,-105 146,-47 250.01,-81.98 303.01,-103.98 119.93,-38.26 253.66,-88.52 340.99,-162.01 123,-105 275,-274.99 312,-347.99 81,-161 109,-208 118,-205 5,2 15.99,24 22.99,50 7,26 19.02,67.98 26.02,93.98 17,60 37,65 80,20 48,-51 69.99,-85.99 87.99,-141.99 78,-243 102,-396.01 105,-673.01 1,-123 5.01,-225.98 7.01,-228.98 8,-8 33.99,58 46.99,120 9.4,50.23 35.44,121.11 58.01,138.98 14,13 21.99,13.01 47.99,2.01 29,-12 33.01,-19.99 47.01,-85.99 19,-86 35.08,-176.02 47.99,-351.02 7.54,-102.21 4.46,-147.08 0,-220 -5.88,-96.1 -57,-283.99 -70,-301.99 -5,-5 -11,-26 -15,-45 -8,-43 -115,-262 -171,-350 -24.12,-37.14 -46.63,-78.67 -69,-115 -13,-18 -12,-26 9,-75 38,-86 29,-235.01 -19,-328.01 -16,-30 -15,-35.98 5,-113.98 37,-143 48,-260.01 38,-388.01 -13,-174 -38,-356 -59,-440 -19,-75 -38,-158 -81,-340 C 4837.96,391.075 4784.82,232.673 4686.99,130 4615.82,57.3656 4562.88,45.0194 4465.71,35.3377 Z" />
   <g id="nose">
      <path style="fill:#414141" id="noseMainPartShadow" d="m 2250,3769.99 c -67.21,118.12 -40.99,251.49 13.08,368.03 13.03,-40.45 75.89,-108.16 137.89,-111.16 73.44,-3.55 129.01,12.15 136.01,106.15 6,79 -27.96,136 -95.96,161 -24.26,10.68 -51.99,6.3 -78,0 -10.71,-2.03 -16.18,-1.09 -25,2.02 -16,10 -7.03,35 28.97,75 47,52 109.99,87.96 169.99,98.96 27,4 87.03,14.09 135.03,14.88 73,1.21 96.98,-8.86 144.98,-29.86 69.31,-31.58 107.98,-70.26 132.92,-105.25 11.72,-18.26 3.9,-34.13 -9.94,-41.78 -48.22,-26.66 -107.15,-50.37 -125.65,-104.43 -12.48,-47.05 -18.39,-103.38 4.69,-140.56 18.97,-22.83 44.3,-33.57 71.35,-36.13 42.72,-4.04 89.72,12.26 122.66,33.14 25,16 51.99,38 58.99,50 7,11 15.98,19.98 19.98,19.98 15,0 52.02,-85.52 52.93,-168.52 1.09,-99 -29.37,-155.52 -103.9,-204.52 -110.53,-72.66 -246.17,-105.32 -378.38,-101.35 -159.35,4.78 -328.14,11.03 -412.64,114.4 z" />
      <path style="fill:#5e5f5e" id="noseHighlight" d="m 2222.08,3822.23 c 5.14,-21.42 21.16,-45.77 37.93,-63.88 53.85,-58.14 182.68,-85.69 277.68,-25.69 42,27 64.1,91.93 23.31,127.34 -50.64,43.96 -315.14,133.72 -337.24,89.98 -23.12,-45.75 -12.18,-83.98 -1.68,-127.75 z" />
   </g>
   <g id="rightEar">
      <path style="fill:#4c4c4c" id="rightEarOuter2" d="m 3982.93,1029.83 c -16,-9 -54.93,-21.83 -87.93,-28.83 -89,-18 -93,-20 -100,-40 -10,-31 25,-143 71,-228 25,-45 58,-109 74,-142 92,-184 277.16,-379.568 419,-449 64.13,-31.391 135.71,-40.742 203.81,-7.04 l -25.7,224.235 z" />
      <path style="fill:#737473" id="rightEarOuter1" d="m 4780,1739 c -14.67,-31.3 -29.14,-65.76 -41.45,-96.62 L 4691.42,979.718 4508.58,357.921 c 23.59,-75.308 23.22,-156.71 54.38,-223.214 82.38,37.788 131.15,134.719 159.92,203.873 66.38,141.861 77.74,274.648 116.12,411.42 51.92,186.586 64.67,290.66 92,476 15,102 11,344 -7,416 -23,91 -70,178 -96,178 -5,0 -26,-37 -48,-81 z" />
      <path style="fill:#afafaf" id="rightEarShadow" d="m 4543,1389 c -65.94,-77.37 -233.67,-192.5 -295.31,-232.05 6.8,-51.06 81.89,-173.248 130.31,-216.95 50,-44 93,-60 167,-60 92,0 125,36 157,169 31,132 20,269 -28,333 -13,18 -30,45 -36,61 -7,15 -15,27 -18,26 -3,0 -38,-36 -77,-80 z" />
      <path style="fill:#d9d8d8" id="rightEarInner" d="m 4702,1593 c -31.38,-48.35 -51.91,-78.98 -65.94,-98.27 -14.31,-17.11 -32.33,-37.7 -41.78,-49.73 29.77,-45.61 42.92,-97.31 52.71,-146.64 12.05,-60.77 17.81,-131.86 9.4,-205.36 C 4639.92,948.985 4601,902 4514,915 c -59,9 -114,52 -198,156 l -68,86 c -89.91,-43.82 -186.22,-95.39 -265.55,-127.1 L 4033,941 c 27,-47 70,-122 95,-166 62.95,-112.348 166.72,-261.708 258.9,-354.699 38.34,-43.447 74.04,-76.193 131.13,-65.549 57.53,10.726 110.8,185.372 121.97,262.248 4,38 18,102 29,143 19,67 67,276 107,464 21,96 21,276 1,324 -11.43,32.92 -20.5,68.07 -38.41,95.27 C 4736.86,1640.2 4719,1619 4702,1593 Z" />
   </g>
   <g id="leftEar">
      <path style="fill:#4c4c4c" id="leftEarOuter4" d="m 887.37,89.8438 c -40.623,4.8658 -40.36,-3.8332 -68.36,129.1662 -7,31 -18.041,64.977 -26.041,75.977 -19,28 -16.94,85.026 3.06,85.026 17,0 158.989,142.008 230.991,233.008 24.83,31.24 42.52,45.599 56.83,51.432 l 1.18,22.526 41.99,54.037 c 73.8,57.269 179.12,238.827 210.85,276.414 51.48,-13.09 233.1,-50.427 230.1,-56.427 -2,-3 -31.95,-64.003 -65.95,-136.003 C 1348.02,510 1252,361.971 1114,228.971 1046.85,170.076 968.75,93.9863 887.365,89.8438 Z" />
      <path style="fill:#737473" id="leftEarOuter2" d="m 852.995,89.974 c -75,0 -152.845,45.385 -211.845,153.385 -54.823,128.078 -111.355,258.633 -142.127,393.62 -31.218,122.513 -54.833,248.345 -68.192,370.491 -8.628,135.56 -32.566,281.77 -32.849,402.56 0,143 7.995,188.98 52.995,283.98 17,37 32.049,66 34.049,64 35,-47 98.966,-146.02 106.966,-166.02 6,-15 9.985,-61.02 8.985,-102.02 -2,-85 24.997,-440.96 38.997,-509.957 5,-25 9.026,-62.031 10.026,-82.031 0,-11.723 -1.743,-15.225 -2.93,-20.834 11.172,-26.395 21.03,-41.281 37.956,-119.14 C 719.397,605.541 802.164,421.843 822.982,325 c 6,-11 23.021,-68.018 38.021,-127.018 L 886.979,89.974 Z" />
      <path style="fill:#afafaf" id="leftEarShadow" d="m 805,1243 c -9,-114 -1,-264 16,-313 23,-67 44,-80 125,-80 64,0 76,3 104,26 30,26 110,169 110,197 0,8 -11,20 -25,27 -81.05,42.44 -226.84,151.45 -312,232 -8,7 -13,-18 -18,-89 z" />
      <path style="fill:#d9d8d8" id="leftEarInner" d="m 581,1245 c 20,-259 23,-280 74,-517 45,-202 81,-315 110,-344 31,-31 76,-31 108,-2 58,54 188,201 254,288 87,116 197.75,315.131 210.1,347.79 -52.06,15.49 -102.19,30.06 -153.1,55.21 l -51,26 -39,-81 c -49,-101 -89,-138 -148,-138 -31,0 -48,6 -63,23 -39,43 -47,84 -48,254 v 162 l -89,83 c -49,46 -107,110 -127,142 -14.815,25.31 -19.947,34.05 -28.994,51.85 C 557.378,1466.25 573.494,1344.62 581,1245 Z" />
   </g>
   <g id="mouth">
      <path style="fill:#f9361e" id="tongueOuter" d="m 2530,5076 c -47,-12 -95,-27 -106,-34 -12,-6 -44,-19 -70,-28 -90,-30 -233,-180 -194,-204 7,-4 23,-7 34,-5 12,2 59,6 106,9 145,10 222,29 294,75 36,22 71,41 77,41 6,0 28,-15 49,-34 57,-51 146,-74 324,-82 l 148,-7 -15,29 c -16,32 -111,125 -166,164 -19,13 -87,41 -150,62 -138,45 -203,48 -331,14 z m 283,-100 c 53,-14 104,-29 114,-35 30,-17 -33,-36 -73,-22 -17,6 -40,11 -53,11 -12,0 -36,7 -53,16 -25,13 -43,14 -107,6 -42,-6 -101,-20 -131,-31 -31,-11 -79,-20 -110,-20 h -55 l 35,18 c 68,36 207,71 321,80 9,0 60,-10 112,-23 z" />
      <path style="fill:#e76658" id="tongueInner" d="m 2591,5019 c -74,-9 -189,-43 -242,-70 -41,-21 -99,-67 -99,-79 0,-16 233,1 290,22 99,35 140,41 169,28 40,-20 109,-33 178,-34 48,-1 68,4 89,20 15,11 29,25 31,31 9,25 -221,94 -307,92 -25,-1 -74,-5 -109,-10 z" />
   </g>
   <g id="rightEye">
      <path style="fill:#ccebf6" id="rightEyeInner" d="m 3407.82,1982.74 c -204.94,122.8 -346.82,342.94 -384.09,541.38 -38.23,170.96 16.61,333.77 111.98,471.65 169.49,162.89 289.92,277.61 561.28,249.69 217.07,-6.11 417.81,-66.44 531.04,-233.74 116,-174 164.49,-505.2 81.49,-674.2 -57,-116 -314.48,-317.54 -443.48,-357.54 -150.63,-32 -311.96,-56.12 -458.22,2.76 z" />
      <path style="fill:#00a9e6" id="rightIris" d="m 3734.75,2200.36 c 52.91,2.4 105.68,13.62 151.57,34.51 109.33,49.77 160.94,110.04 200.97,227.02 34,99.34 24.02,222.97 -19.98,311.97 -46.75,95.05 -93.67,141.78 -179.69,184.51 -86.48,42.96 -178.91,60.46 -273.57,39.84 -81.07,-17.66 -161.8,-46.69 -216.73,-100.32 -58.07,-56.7 -96.45,-140.76 -110.03,-224.03 -12.54,-76.89 6.09,-178.93 44.01,-253.97 56.08,-110.96 117.98,-160.04 250.98,-201.04 46.5,-14.5 99.57,-20.89 152.47,-18.49 z" />
      <path style="fill:#000000" id="rightPupil" d="m 3781,2799 c 78.99,-31.86 116.85,-99.26 117.98,-200.53 1.05,-95.6 -28.32,-154.92 -73.98,-175.47 -43.85,-23.38 -96.43,-34.51 -139.01,-31.41 -41.97,3.05 -85.6,15.55 -120.99,35.41 -55.79,31.3 -85.43,94.85 -89,168 4.42,118.37 52.5,174.92 145.7,211.83 57.17,19.12 113.21,10.76 159.3,-7.83 z" />
      <path style="fill:#fefdfd" id="rightEyeReflection" d="m 3725.8,2718.53 c -35.32,-21.47 -59.39,-54.3 -66.78,-95.79 -15.03,-84.46 23.15,-142.31 77.8,-170.11 55.8,-28.39 112.51,-25.12 165.18,10.37 39.34,26.51 72.9,67.58 72.49,136.09 -0.47,81 -68.56,148.91 -138.43,153.1 -36.53,2.2 -71.25,-9.95 -110.26,-33.66 z" />
   </g>
   <g id="leftEye">
      <path style="fill:#ccebf6" id="leftEyeInner" d="m 1763.55,1946.31 c -221.91,-18.66 -600.23,109.8 -674.78,275 -85.72,207.78 -119.344,456.69 -19.16,648.68 103.99,181.03 200.02,311.91 406.54,366.29 243.85,53.27 481.6,-3.56 651.36,-171.45 147.69,-165.49 202.54,-390.79 202.47,-590.08 -15.92,-157.88 -52.41,-314.1 -186.06,-402.49 -119.72,-52.36 -263.99,-128.1 -380.37,-125.95 z" />
      <path style="fill:#00a9e6" id="leftIris" d="m 1658.56,2209.5 c 60.89,-2.26 124.11,8.81 182.68,39.13 94.71,44.35 164.94,107.46 215.37,223.04 32,87 28.99,193.97 -8.01,270.97 -65,134 -139.34,201.63 -252.34,237.63 -147,47 -315.64,10.37 -431.64,-112.63 -68.83,-72.19 -93.8,-144.39 -100.2,-226.63 -3.64,-74.33 -4.6,-115.33 25.2,-195.38 39.57,-85.11 106.42,-150.14 200.19,-195.12 49.3,-23.13 107.86,-38.75 168.75,-41.01 z" />
      <path style="fill:#000000" id="leftPupil" d="m 1774,2805 c 59.96,-31.82 105.58,-103.96 107.94,-183.85 3.02,-102.55 -44.26,-188.07 -143.47,-217.8 -93,-28 -178.48,-8.36 -231.47,44.65 -69.05,57.01 -85,167 -35,266 28.25,53.12 71.21,78.26 119.31,97.08 61.27,23.97 138.65,17.29 182.69,-6.08 z" />
      <path style="fill:#fefdfd" id="leftEyeReflection" d="m 1776.31,2750.39 c -37,-11 -81.47,-32.55 -107.47,-82.55 -24,-48 -20.98,-118.71 14.6,-171.86 35.18,-47.44 77.82,-72.42 134.01,-71.75 39,0 87.27,22.67 114.65,61.12 19.63,27.56 34.6,52.54 36.77,115.5 1.37,39.79 -25.83,88.03 -70.83,120.03 -36,25 -85.73,40.51 -121.73,29.51 z" />
   </g>
   <path style="fill:#fc6c01" id="glasses" d="m 1609.77,1801.69 c -99.72,7.31 -211.78,39.59 -308.08,84.9 -98.6,46.39 -185.37,113.76 -241.03,181.14 -38.39,38.78 -102.599,154.74 -120.1,203.75 C 893.633,2240.94 777.478,2165.28 735.026,2139.97 637.598,2073.74 528.307,1997.31 455.99,1939 c -19.114,20 -28.864,45.43 -35.524,68.67 -21.432,91.27 14.486,126.9 57.506,171.17 39.923,40.73 102.35,90.33 181.012,143.17 47.021,27.77 179.334,108.09 224.61,133.26 -18.68,95.71 -34.35,196.98 -26.888,282.69 13.482,154.84 102.493,305.09 196.094,406.18 133.35,134.66 323.88,224.66 502.15,256.84 82,13 252.01,2.03 319.01,-20.97 115,-39 232.96,-107.99 306.96,-177.99 129.35,-119.49 226.07,-251.87 260.03,-413.93 28.18,-145.64 33.88,-292.89 -28.15,-426.99 63.45,-66.33 152.34,-121.56 250.16,-121.06 100.21,0.51 183.58,61.22 260.74,122.53 -35.18,88.02 -55.67,142.55 -49.74,244.4 5.31,90.96 17.23,182.73 47.72,268.03 40.01,111.9 116.65,212.63 188.22,285.74 65.24,65.73 146.84,126.44 199.67,154.1 128.05,67.06 267.63,91.73 405.34,94.14 137,1 194.05,-12.96 334.05,-81.96 171,-85 284.5,-195.52 384.5,-400.52 10,-20 32.56,-69.7 40.56,-101.7 25.03,-72.11 35.02,-153.38 34.57,-222.39 -2.34,-44.1 -6.98,-96.8 -13.41,-132.94 -11,-104 -19.33,-98.29 -23.37,-116.08 79.93,-38.71 197.22,-84.34 279.1,-119.41 46.66,-19.07 73.99,-47.01 99.68,-67.18 25.61,-20.11 40.31,-46.54 52.4,-71.29 17.31,-35.44 30.93,-97.52 16.93,-139.52 -20,-62 -32,-62.96 -97,-12.96 -173.88,106.35 -292.48,136.81 -455.51,219.07 -84.78,-105.94 -198.13,-215.54 -307.84,-277.27 -130.93,-71.61 -258.6,-89.72 -406.58,-79.82 -106.59,7.13 -209.88,41.08 -297.98,83.99 -94.76,46.92 -159.28,98.43 -229.03,171.03 -36.25,43.45 -70.13,87.17 -106.06,137.3 -79.74,-48.52 -174.65,-106.93 -267.9,-127.28 -96.96,-19.25 -179.12,-6.81 -266.6,40.43 -60.29,30 -99.38,58.79 -146.33,101.22 -26.26,-47.11 -55.47,-95.54 -85.93,-134.84 -33.71,-43.27 -72.86,-83.78 -113.64,-114.36 -43.88,-32.9 -129.7,-85.57 -195.64,-114.71 -76.48,-33.81 -212.89,-54.99 -334.11,-46.1 z m 34.24,183.34 c 149,1 254.79,18.5 384.96,119.98 100.31,78.2 162.5,178.22 197.01,288.02 40.26,128.1 51.79,303.54 -4.01,427.8 -23.57,52.48 -55.42,105.56 -89.94,145.19 -87.64,100.6 -146.97,144 -303.97,208 -82.59,23.8 -161.85,20.88 -228.45,10.09 -61.43,-11.18 -125.2,-27.95 -198.63,-62.1 -100.58,-51.73 -211.73,-168.64 -247.99,-244.02 -71.89,-149.42 -91.32,-329.09 -54.08,-453.59 33.37,-109.89 74.36,-164.58 117.11,-219.19 58.8,-75.11 146.27,-131.03 220.96,-168.23 66.26,-33 133.37,-45.16 207.03,-51.95 z m 2052.47,11.58 c 146.38,0 291.34,61.67 392.95,145.86 134.3,112.99 211.25,274.8 210.57,457.53 -0.81,134.63 -55.55,273.16 -149.04,384.15 -76.88,91.82 -198.28,156.22 -298.94,189.87 -118.47,39.61 -270.94,32.85 -394.01,-22 C 3406.08,3128.87 3292.02,3037 3227.02,2964 3098,2812.87 3061.08,2614.95 3104.16,2442.34 c 23.22,-93.02 105.22,-215.03 185.05,-283.82 120.68,-103.99 262.71,-161.46 407.27,-161.91 z" />
   <path style="fill:#2d2d2d" id="furTop2" d="m 2612,1783 c -65,-87 -139,-159 -341,-331 -176,-150 -268,-210 -391,-253 -133,-47 -220,-61 -310,-50 -102,13 -222,43 -305,76 -36,15 -76,25 -91,23 l -25,-3 33,-35 c 52,-53 147,-107 250,-141 85,-29 108,-32 264,-37 252,-7 445,27 638,113 122,55 181,92 274,167 39,32 73,58 76,58 3,0 30,-22 61,-49 107.74,-94.57 233.48,-160.95 359.05,-202.92 146.1,-48.82 301.18,-74.84 435.95,-75.08 133.97,-0.2 198,4 293,36 66,23 97,38 97,49 0,13 -15,14 -104,9 -175,-11 -362,26 -511,100 -86,43 -217,128 -269,174 -70,61 -183,205 -253,323 -63,108 -70,115 -99,116 -27,0 -38,-9 -82,-67 z" />
   <path style="fill:#4c4c4c" id="furTop1" d="m 3816.99,1105.01 c -185,-11 -379.96,26.02 -531.96,102.02 -90,45 -222.03,130.97 -274.03,178.97 -73,65 -171.03,191 -246.03,314 l -72,119.99 c -82.39,-184.29 -223.87,-334.56 -349.13,-443.31 -224,-191 -379,-224.6 -589.87,-251.68 -179.66,-23.08 -469.98,22.99 -622.98,130.99 -42,30 -100,70.04 -128,90.04 -41.092,30.86 -81.498,72.15 -114.969,96.94 -110,79 -182.042,171.04 -276.042,354.04 l -50.976,100 47.005,38.99 c 71.337,58.23 159.364,106.96 216.992,158.99 19.795,14.26 36.115,24.97 49.305,32.19 l 389.115,-469.93 689.57,-149.24 444.99,394.01 84.75,88.38 c 58.8,-24.39 125.49,-30.33 177.71,-30.47 76.32,-2.4 144.63,17.9 207.8,44.78 l 203.73,-267.05 678.88,-229.78 542.12,362.11 169.47,143.31 c 44.63,-11.65 92.88,-29.63 129.55,-42.27 78,-27 118.04,-49.06 118.04,-67.06 0,-33 -55.04,-145 -118.04,-239 -37,-55 -106.96,-139.97 -156.96,-189.97 -111,-111 -337.01,-281.97 -433.01,-328.97 -64,-30 -85.03,-35.02 -185.03,-41.02 z" />
   <path style="fill:#bdbdbd" id="furRightCorner" d="m 4817.97,2330.01 c -37,0 -187.96,69.98 -187.96,86.98 0,7 18.97,21.99 42.97,33.99 99,50 171,113.04 214,187.04 61,102 65,173.95 14,229.95 l -28.97,31.05 c 56.89,62.5 94.44,101.97 138.99,167.97 75.54,111.96 128.75,232.64 171.03,347.98 24.03,-69.52 28.07,-139.23 29.46,-205.89 0.58,-89.97 -6.91,-190.13 -22.49,-255.11 -42.94,-182.25 -168.8,-398.03 -199.48,-441.45 -29.17,-41.26 -71.8,-105.75 -102.54,-139.54 -29.52,-32.45 -47.01,-42.97 -69.01,-42.97 z" />
   <path style="fill:#bdbdbd" id="furLeftCorner" d="m 422.786,2292.06 c -6.015,-1.12 -11.32,-0.78 -15.82,0.97 -16,6 -82.95,118.94 -115.95,196.94 -13,30 -44.034,97.03 -68.034,149.03 -65,138 -96.966,289.99 -106.966,505.99 -5.577,124.53 10.873,221.64 27.994,340.04 36.515,-123.32 76.764,-255.12 133.062,-353.52 68.507,-117.4 171.726,-255.41 243.957,-319.53 27.015,-23.98 48.958,-48.99 48.958,-55.99 0,-7 -13.99,-22.96 -30.99,-34.96 -39,-29 -61.971,-83.05 -53.971,-123.05 4,-16 28.948,-57.97 54.948,-92.97 70,-92 70.049,-96.03 9.049,-129.03 z" />
   <path style="fill:#fefdfd" id="furCenter" d="m 2519.58,2385.51 c 20.69,65.97 35.45,136.1 34.65,201.7 -1.23,114.14 -9.8,210.43 -39,317.65 -27.16,120.37 -61.9,205.31 -126.94,283.03 -89.8,101.18 -195.51,205.54 -317.35,272.39 -134.66,81.09 -298.83,79.37 -436.46,76.62 -125,-2 -163.29,-13.7 -240.29,-38.7 -111,-35 -185.28,-68.55 -281.28,-137.55 -72.78,-49.97 -108.68,-65.52 -165.701,-111.12 -85.479,78.57 -153.002,176.32 -175.648,281.62 -23.801,90.34 -24.961,181.32 -9.149,266.97 22.054,119.47 77.124,228.58 149.829,311.14 90.359,85.27 212.279,124.75 322.379,142.11 101.35,9.23 202.08,29.23 269.4,-5.37 -3.19,-10.32 -7.4,-23.6 -12.03,-37.95 -12.4,-36.02 -16.45,-73.93 -21.64,-110.9 -2.69,-42.37 -36.66,-62.45 -66.17,-75.94 -44.67,-20.26 -85.05,-22.58 -130.97,-51.05 -16.27,-13.28 -20.65,-39.64 -9.21,-49.09 12.04,-9.95 26.03,-9.05 68.03,1.95 51.3,10.87 88.64,23.28 116.01,36.39 75.31,36.05 79.32,76.5 82.95,105.8 5.67,45.69 16.12,93.92 29.37,129.8 25.62,68.99 64.89,154.28 87.62,185.04 68,90 151.03,159.01 249.03,208.01 102,51 203.02,87.96 263.02,95.96 40,5 271.98,-1.98 308.98,-8.98 64.44,-9.26 162.84,-61.21 155.99,-72.98 0,-8 -28.99,-23 -69.99,-36 -38,-13 -88.02,-32.04 -110.02,-43.04 -47.38,-24.51 -122.14,-82.33 -174.09,-132.68 -19.28,-19.4 -38.07,-38.5 -54.95,-57.29 -24.22,-28 -76.93,-130.98 -91.93,-186.98 -30,-110 -9,-292.01 42,-369.01 13.56,-22.3 21.44,-35.18 33.13,-47.46 27,-24.42 46.68,-41.27 79.82,-63.09 l 0.13,-0.13 c 3.94,-3.18 14.57,-9.39 28.91,-15.43 36.2,-14.72 75.55,-28.03 114.71,-38.48 v -0.52 l 0.1,0.1 c 117.49,-29.88 337.3,-29.58 411.98,-15.82 v -0.26 c 129.68,23.13 246.82,75.56 330.46,165.36 27.12,39.84 40.51,71.44 58.79,123.77 48.79,140.07 12.95,282.94 -109.05,432.94 -110,135 -174,185.06 -322,253.06 -65,29 -66.98,30.96 -47.98,45.96 11,8 34,21.04 50,29.04 34.22,14.2 71.05,27.94 119.98,37.95 52.96,10.83 91.04,7.96 165.04,6.91 138,-1.95 197.02,-19.92 316.02,-72.92 38.32,-17.23 78.98,-30 121.94,-61.98 153,-116 250.06,-268.98 278.06,-436.98 24,-145 75.04,-203.04 176.04,-201.04 65,1 127.93,20.04 127.93,37.04 0,11.28 -19.16,26.76 -40.95,31.71 -49.46,11.23 -96.57,-14.22 -148.96,29.3 -35,30 -47.08,64.97 -55.08,164.97 -4.72,43.64 -9.02,54.53 -11.72,66.73 174.19,22.49 285.51,-1.15 389.44,-42.12 123.88,-48.83 220.61,-141.58 286.39,-222.79 80.3,-99.12 91.58,-217.88 95.42,-280.34 8.04,-130.89 -51.73,-294.27 -163.73,-445.27 C 4292.3,3395.95 4038.6,3528 3830,3531.9 c -178.44,-3.41 -368.58,-24.29 -527.99,-87.43 -151.42,-73.42 -294.21,-204.67 -384.21,-365.1 -49.67,-88.54 -85.49,-190.79 -103.22,-284.12 -28.62,-150.65 -35.67,-269.37 2.25,-406.31 -55.53,-45.02 -103.36,-62.6 -158.7,-61.33 -41.98,0.96 -101.32,27.78 -138.55,57.9 z" />
   <path style="fill:#bdbdbd" id="furBottom" d="m 749.023,2743.03 c -12.329,-2.58 -29.523,0.98 -49.023,11.98 -14,8 -34.19,22.07 -53.19,22.07 -24.749,0.75 -50.75,15.53 -54.037,21.29 -4.855,8.51 -10.045,19.89 -16.796,34.64 -51,107 -67.982,149 -97.982,247 -36.095,116.8 -57.491,189.52 -63.867,229.04 -19.932,123.53 -23.736,233.65 -21.159,345.96 2.597,90.71 5.626,182.82 14.556,274.03 7.92,80.89 20.481,161.07 41.498,238.93 9,16 32.008,-33.95 58.008,-126.95 10,-35 23.99,-66.01 30.99,-69.01 26,-9 60.005,16.01 72.005,55.01 17,53 94.979,234.01 136.979,319.01 65.098,112.79 130.233,218.07 208.519,313.55 105.186,132.27 227.826,199.21 371.196,257.18 146.49,54.85 307.09,87.65 444.21,141.44 137.01,53.87 266.71,116.29 399.06,179.82 195.08,82.55 335.27,137.61 512.3,140.3 133.01,-0.95 279.84,-27.31 385.68,-83.33 116.24,-61.53 229.95,-113.62 337.04,-164.98 77,-38 164.99,-74.98 194.99,-83.98 369,-106 570.33,-191.77 669.01,-284.05 71.36,-66.73 146.8,-140.31 208.19,-219.76 99.39,-128.65 146.4,-265.56 197.8,-417.22 l 25.26,-75.72 c 2.9,-15.06 19.3,-18.93 50.72,-17.25 45.04,2.41 47.04,-2.04 62.04,34.96 22.82,72.03 42.54,142.64 67.97,207.88 39.62,-98.42 51.44,-170.87 65.04,-277.86 17.79,-142.31 24.85,-270.27 20.77,-388.22 -6.7,-193.69 -43.42,-360.33 -111.79,-518.82 -21,-47 -45.03,-103.99 -54.03,-127.99 -16,-42 -17.01,-41.95 -61.01,-40.95 -25,1 -53.97,-1.01 -64.97,-5.01 -17,-6 -23.99,2.01 -44.99,55.01 -60.02,103 -100.53,188.26 -137.53,244.26 -19,28 -56.61,79.26 -63.23,88.26 19.18,23.76 52.78,63.47 80.78,109.47 49.55,411.71 -294.73,746.89 -582.04,817.97 -37.6,8.44 -68.33,10.39 -82.52,8.96 -3.29,16.46 -17.98,48.56 -34.47,92.08 -57.27,151.16 -224.01,328.98 -383.01,400.98 -67,31 -83.96,45.01 -181.96,155.01 -142,159 -230.02,215.98 -416.02,272.98 -137,41 -320.02,8.97 -527.02,-93.03 -87,-42 -158.02,-107.99 -224.02,-205.99 -55,-82 -90.98,-112.99 -183.98,-155.99 -116,-55 -229.24,-155.1 -291.02,-250.98 -42.9,-66.58 -76.8,-139 -100.18,-209.19 -13.62,-3.46 -39.34,-8.21 -113.82,-22.84 -245.22,-49.32 -432.567,-186.27 -553.914,-437.23 -69.374,-143.47 -65.934,-245.43 -17.046,-373.77 28.121,-42.59 51.97,-71.92 83.789,-110.61 16.211,-15.54 32.118,-31.38 47.906,-47.34 -48.366,-81.98 -100.157,-183.27 -141.937,-287.02 -20.55,-52.38 -31.126,-113.6 -36.307,-177.36 -0.05,0.1 -0.01,0.13 -0.07,0.19 -1.074,-7.25 -2.253,-14.55 -3.581,-22 0,-13.5 -7.462,-22.22 -19.792,-24.81 z" />
   <path style="fill:#9a9a99" id="glassesShadow2" d="m 4626.5,2617.51 c -6.92,-0.4 -11.71,3.88 -12.63,23.57 -0.46,74.97 -25.08,179.04 -61.07,263.35 -18,42 -64.23,137.23 -139.78,240.56 -63.65,87.06 -141.97,160.23 -221.09,208.98 -106.54,65.64 -181.14,94.45 -294.99,115.04 -126,24 -203.98,24.02 -333.98,2.02 -185.56,-28.88 -275.16,-87.49 -425.2,-176.63 -38.19,-22.69 -91.52,-75.85 -103.52,-86.85 -20,-18 -96.64,-94.74 -116.14,-128.32 -7.31,27.49 17.66,74.87 45.7,122.27 16.97,27.64 34.56,55.96 55.86,80.47 96.97,111.59 238.96,201.71 338.67,242.12 144.5,50.39 309.32,74.64 468.69,77.99 183.1,-9.72 338.4,-49.53 472.78,-150.06 77.29,-57.68 147.55,-132.44 195.19,-207.03 36.13,-56.57 101.42,-153.53 135.02,-273.96 16.12,-40.69 24.03,-40.58 34.51,-42.25 13,-64.98 26.86,-135.01 19.4,-223.77 -7,-84 -6.97,-85.94 -31.97,-82.94 -9.47,1 -18.54,-4.12 -25.45,-4.56 z" />
   <path style="fill:#9a9a99" id="glassesShadow1" d="M 772.461 2789.65 C 772.411 2789.75 772.446 2789.78 772.396 2789.84 L 772.396 2789.97 C 757.432 2820.34 784.149 2951.92 812.109 3042.38 C 836.73 3121.55 881.847 3217.81 923.568 3275 C 923.804 3274.97 923.728 3274.84 923.958 3274.8 C 923.369 3275.44 923.589 3275.13 922.982 3275.78 C 925.226 3277.78 982.864 3340.21 985.286 3342.32 C 996.224 3351.88 1008.43 3362.33 1016.99 3371.03 C 1064.99 3428.03 1255.02 3542.01 1366.02 3580.01 C 1469.02 3616.01 1616.41 3641.84 1801.3 3620.44 C 2002.77 3597.12 2118.54 3546.54 2217.32 3465.43 C 2258.32 3436.43 2378.99 3309.47 2402.67 3276.3 C 2486.18 3159.3 2541.11 3008.41 2519.27 2898.44 C 2473.21 2995.12 2423.07 3077.15 2356.38 3156.84 C 2266.58 3258.02 2175.29 3334.65 2053.45 3401.5 C 1918.79 3482.59 1770.64 3494.74 1633.01 3491.99 C 1508.01 3489.99 1479.99 3486 1402.99 3461 C 1291.99 3426 1229.01 3394 1133.01 3325 C 1080.73 3288.41 1038.44 3255.91 991.602 3211.46 L 952.995 3158.98 C 892.015 3075.75 845.96 3004.74 816.211 2929.17 C 795.661 2876.79 780.91 2833.83 772.461 2789.65 z " />
   <path style="fill:#d9d8d8" id="furRightBrow" d="m 2868.43,2004.74 c 0,-17 64.57,-152.74 107.57,-225.74 61,-105 169,-206 276,-259 111,-54 191,-70 369,-70 165.74,-0.28 292.27,32.97 430,127 109.11,67.11 210.95,158.46 281.75,255 42.65,58.15 96.32,126.11 130.49,181.35 -18.18,9.15 -51.49,26.72 -51.49,26.72 0,0 -207.13,-203.77 -335.75,-266.07 -130.98,-62.04 -236,-78.72 -366,-78.72 -128,0 -269.39,26.63 -348.28,65.86 -109.44,54.44 -162.96,89.89 -231,151.76 -57.16,51.99 -98.59,102.85 -136.8,166.15 -38.63,-32.41 -79.54,-55.25 -125.49,-74.31 z" />
   <path style="fill:#d9d8d8" id="furLeftBrow" d="M 873.942,2126.74 C 928.89,1883.38 1081.76,1726.8 1253.11,1607.35 1407.95,1500.49 1592.89,1448.08 1769,1450 c 152.74,1.67 276.49,36.9 395.71,117.03 107.45,73.09 195.45,177.61 269.29,317.97 25,48 49.11,98.29 49.11,105.29 -4.67,2.02 -28.85,12.93 -60.85,28.93 L 2361,2053 l -28,-34 c -74,-89 -172,-176 -233,-206 -191,-95 -289,-118 -469,-110 -156,7 -206,19 -364,92 -122.22,55.71 -241.67,157.73 -306.062,257.78 -18.133,33.43 -36.808,58.11 -52.881,88.41 -7.218,-1.91 -24.351,-10.08 -34.115,-14.45 z" />
   <path style="fill:#fefdfd" id="furRightWhite" d="m 4641.01,2947.08 8.44,-80.08 c 6.2,-58.88 -2.24,-157.32 -35.86,-224.05 4.01,-64.41 -6.62,-162.53 -20.94,-224.37 40.94,-20.31 102.72,-48.61 146.13,-64.81 77.42,53.29 161.48,155.41 199.61,255.57 44.82,117.71 55.33,233.81 -42.84,316.26 -4.88,-6.12 -25.55,-30.6 -58.55,-60.6 -34,-30 -67,-55 -74,-55 -23,0 -24,20 -2,62 12,23 28.9,60.68 33.9,75.68 -56.97,13.37 -100.62,13.8 -153.89,-0.6 z" />
   <path style="fill:#fefdfd" id="furLeftWhite" d="m 450,2620 c 11.132,-97.11 82.097,-185.08 122.549,-229.12 17.394,9.17 27.59,16.11 104.451,61.12 l 105,63 -9,40 c -4,22 -8,79 -8,127 l 3.872,86.2 c -60.394,29.38 -111.98,31.94 -176.18,30.78 6.112,-9.66 10.875,-19.32 15.869,-28.98 4,-16 7.074,-25.29 -1.469,-27.7 -5.292,-1.5 -12.766,3.22 -22.314,11.31 -13.174,12.21 -23.907,21.39 -36.257,32.18 C 481.149,2751.32 442.878,2682.13 450,2620 Z" />
</svg>