<?xml version="1.0" encoding="UTF-8" standalone="no"?>
<svg width="160.2" height="164.7" viewBox="0 0 5340 5490" version="1.1" id="svg35" xmlns="http://www.w3.org/2000/svg" xmlns:xlink="http://www.w3.org/1999/xlink" >
   <defs>
      <linearGradient id="grayGradient" x1="2717.82" y1="1085.34" x2="2682.59" y2="5448.88"
         gradientUnits="userSpaceOnUse">
         <stop style="stop-color:#646464" offset="0" />
         <stop style="stop-color:#b0b0b0" offset="0.33" />
         <stop style="stop-color:#d5d5d5" offset="1" />
      </linearGradient>
   </defs>
   <path style="fill:#020202" id="blackOutline" d="M 4465.71,35.3377 C 4395.06,28.2983 4213,107.004 4144,174.004 4021.89,308.386 3893.61,425.93 3821,600 c -65.92,126.198 -88.05,230.779 -139.01,351.992 -5,5 -99.01,4.919 -212.99,2.453 -113.21,-2.449 -238.55,22.872 -325.99,48.565 -119,34 -281,101.98 -335,138.98 -58.32,27.46 -100.15,60.7 -150,100 -54.61,-47.86 -121.89,-88.69 -175.9,-121.3 -115.68,-65.87 -237.48,-102.29 -362.11,-131.686 -75,-17 -135.05,-33.299 -279.05,-35.299 C 1739.95,951.705 1654,958 1650,955 1602.37,831.137 1545.08,713.895 1508.02,632.515 1451.96,524.771 1401.86,431.276 1335,340 1307,296 1225,211 1146,145 1078,88.0001 1022.96,55.1801 931.956,32.1801 c -58,-15 -75.96,-12.1762 -135.96,1.8238 C 671.34,57.937 623.383,144.525 564.004,235 553.004,252 532,292 520,325 484.401,392.936 472.84,459.351 450.996,525 400.996,654 371,811 340,1105 c -14.912,145.01 -38.316,305.97 -25.993,433.13 10.317,111.44 53.172,210.91 95.256,314.88 29.137,113.53 -12.521,230.78 -50.096,322.08 -66.14,114.82 -140.466,222.77 -195.701,342.25 C 114.348,2636 72.0441,2755.96 44.0039,2880 c -27,119 -24,421 5,575 24,131 47,212.99 65.0001,231.99 6,6 21.996,14.01 35.996,18.01 25,6 27.004,3.01 64.004,-116.99 45,-141 73.992,-213 81.992,-205 4,3 4.745,133.03 9.004,288.98 4.754,174.08 16.003,293.37 35.996,428.01 18,127 100.012,374.99 122.012,366.99 14,-4 19,-14.99 60,-126.99 19,-52 39,-96.01 45,-98.01 5,-1 25.281,27.4 41.992,65 37.525,84.43 90.092,171.58 136.992,237.01 56.758,85.65 120.681,150.65 187.012,229.01 45.446,53.69 84.376,85.24 155.996,131.99 121.68,79.43 236.44,110.79 365,150 50,15 115,33.99 145,41.99 30,8 71,22 90,30 19,8 69,28.01 110,43.01 41,15 138,59.01 215,98.01 77,38 151,72.99 165,76.99 14,4 48,17 75,30 80,36 164,62.01 250,78.01 120,22 273,20.99 385,-4.01 94,-20 150,-41 285,-105 89.5,-42.47 172.79,-74.29 240,-107.01 83,-41 193,-88 245,-105 146,-47 250.01,-81.98 303.01,-103.98 119.93,-38.26 253.66,-88.52 340.99,-162.01 123,-105 275,-274.99 312,-347.99 81,-161 109,-208 118,-205 5,2 15.99,24 22.99,50 7,26 19.02,67.98 26.02,93.98 17,60 37,65 80,20 48,-51 69.99,-85.99 87.99,-141.99 78,-243 102,-396.01 105,-673.01 1,-123 -10.71,-215.5 -20.62,-270.98 27.47,34.34 58.4,108.75 74.62,162 15.79,51.84 35.44,121.11 58.01,138.98 14,13 21.99,13.01 47.99,2.01 29,-12 33.01,-19.99 47.01,-85.99 19,-86 35.08,-176.02 47.99,-351.02 7.54,-102.21 4.46,-147.08 0,-220 -4.96,-119.7 -42.6,-235.15 -85,-346.99 -61.21,-161.98 -151.14,-325.89 -240,-465 -107.34,-168.04 -60.89,-346.77 -5,-516.99 37,-143 48,-260.01 38,-388.01 -13,-174 -38,-356 -59,-440 -19,-75 -38,-158 -81,-340 C 4837.96,391.075 4784.82,232.673 4686.99,130 4615.82,57.3656 4562.88,45.0194 4465.71,35.3377 Z" />
   <g id="rightEar">
      <path style="fill:#4c4c4c" id="rightEarOuter2" d="m 3982.93,1029.83 c -16,-9 -54.93,-21.83 -87.93,-28.83 -89,-18 -93,-20 -100,-40 -10,-31 25,-143 71,-228 25,-45 58,-109 74,-142 92,-184 277.16,-379.568 419,-449 64.13,-31.391 135.71,-40.742 203.81,-7.04 l -25.7,224.235 z" />
      <path style="fill:#737473" id="rightEarOuter1" d="m 4780,1739 c -14.67,-31.3 -29.14,-65.76 -41.45,-96.62 L 4691.42,979.718 4508.58,357.921 c 23.59,-75.308 23.22,-156.71 54.38,-223.214 82.38,37.788 131.15,134.719 159.92,203.873 66.38,141.861 77.74,274.648 116.12,411.42 51.92,186.586 64.67,290.66 92,476 15,102 11,344 -7,416 -23,91 -70,178 -96,178 -5,0 -26,-37 -48,-81 z" />
      <path style="fill:#afafaf" id="rightEarShadow" d="m 4543,1389 c -65.94,-77.37 -233.67,-192.5 -295.31,-232.05 6.8,-51.06 81.89,-173.248 130.31,-216.95 50,-44 93,-60 167,-60 92,0 125,36 157,169 31,132 20,269 -28,333 -13,18 -30,45 -36,61 -7,15 -15,27 -18,26 -3,0 -38,-36 -77,-80 z" />
      <path style="fill:#d9d8d8" id="rightEarInner" d="m 4702,1593 c -31.38,-48.35 -51.91,-78.98 -65.94,-98.27 -14.31,-17.11 -32.33,-37.7 -41.78,-49.73 29.77,-45.61 42.92,-97.31 52.71,-146.64 12.05,-60.77 17.81,-131.86 9.4,-205.36 C 4639.92,948.985 4601,902 4514,915 c -59,9 -114,52 -198,156 l -68,86 c -89.91,-43.82 -186.22,-95.39 -265.55,-127.1 L 4033,941 c 27,-47 70,-122 95,-166 62.95,-112.348 166.72,-261.708 258.9,-354.699 38.34,-43.447 74.04,-76.193 131.13,-65.549 57.53,10.726 110.8,185.372 121.97,262.248 4,38 18,102 29,143 19,67 67,276 107,464 21,96 21,276 1,324 -11.43,32.92 -20.5,68.07 -38.41,95.27 C 4736.86,1640.2 4719,1619 4702,1593 Z" />
   </g>
   <g id="leftEar">
      <path style="fill:#4c4c4c" id="leftEarOuter4" d="m 887.37,89.8438 c -40.623,4.8658 -40.36,-3.8332 -68.36,129.1662 -7,31 -18.041,64.977 -26.041,75.977 -19,28 -16.94,85.026 3.06,85.026 17,0 158.989,142.008 230.991,233.008 24.83,31.24 42.52,45.599 56.83,51.432 l 1.18,22.526 41.99,54.037 c 73.8,57.269 179.12,238.827 210.85,276.414 51.48,-13.09 233.1,-50.427 230.1,-56.427 -2,-3 -31.95,-64.003 -65.95,-136.003 C 1348.02,510 1252,361.971 1114,228.971 1046.85,170.076 968.75,93.9863 887.365,89.8438 Z" />
      <path style="fill:#737473" id="leftEarOuter2" d="m 852.995,89.974 c -75,0 -152.845,45.385 -211.845,153.385 -54.823,128.078 -111.355,258.633 -142.127,393.62 -31.218,122.513 -54.833,248.345 -68.192,370.491 -8.628,135.56 -32.566,281.77 -32.849,402.56 0,143 7.995,188.98 52.995,283.98 17,37 32.049,66 34.049,64 35,-47 98.966,-146.02 106.966,-166.02 6,-15 9.985,-61.02 8.985,-102.02 -2,-85 24.997,-440.96 38.997,-509.957 5,-25 9.026,-62.031 10.026,-82.031 0,-11.723 -1.743,-15.225 -2.93,-20.834 11.172,-26.395 21.03,-41.281 37.956,-119.14 C 719.397,605.541 802.164,421.843 822.982,325 c 6,-11 23.021,-68.018 38.021,-127.018 L 886.979,89.974 Z" />
      <path style="fill:#afafaf" id="leftEarShadow" d="m 805,1243 c -9,-114 -1,-264 16,-313 23,-67 44,-80 125,-80 64,0 76,3 104,26 30,26 110,169 110,197 0,8 -11,20 -25,27 -81.05,42.44 -226.84,151.45 -312,232 -8,7 -13,-18 -18,-89 z" />
      <path style="fill:#d9d8d8" id="leftEarInner" d="m 581,1245 c 20,-259 23,-280 74,-517 45,-202 81,-315 110,-344 31,-31 76,-31 108,-2 58,54 188,201 254,288 87,116 197.75,315.131 210.1,347.79 -52.06,15.49 -102.19,30.06 -153.1,55.21 l -51,26 -39,-81 c -49,-101 -89,-138 -148,-138 -31,0 -48,6 -63,23 -39,43 -47,84 -48,254 v 162 l -89,83 c -49,46 -107,110 -127,142 -14.815,25.31 -19.947,34.05 -28.994,51.85 C 557.378,1466.25 573.494,1344.62 581,1245 Z" />
   </g>
   <path style="fill:#fefdfd" id="furWhite" d="m 1058.74,1446.85 -765.433,1228.81 255.196,110.15 c 12.35,-10.79 22.681,-20.48 36.263,-32.23 7.577,-6.56 17.869,-14.81 25.846,-9.44 5.254,3.54 3.802,13.42 -2.083,25.85 -4.857,10.26 -9.709,19.31 -15.821,28.97 l 264.308,1476.34 1802.304,696.21 1755.66,-539.65 381.9,-1478.08 c -5,-15 -23.88,-58.77 -35.88,-81.77 -22,-42 -20.98,-61.98 2.02,-61.98 7,0 39.96,24.94 73.96,54.94 33,30 55.73,56.58 60.61,62.7 l 200.85,-136.26 -897.62,-1390.24 z" />
   <path style="fill:#3e3e3e" id="furTop2" d="m 1964.29,1288.65 -861.34,-51.69 C 1191.89,1154.52 1329,1103 1432,1069 c 85,-29 108,-32 264,-37 252,-7 445,27 638,113 148.06,64.02 235.3,123.81 330.91,207.67 78.41,-90.46 291.79,-197.25 434.21,-245.92 146.1,-48.82 306.11,-63.51 440.88,-63.75 148.51,6.55 283.68,17.54 403.04,85 l -711.61,247.94 -538.47,510.39 z" />
   <path style="fill:url(#grayGradient)" id="furTop1" d="m 3816.99,1104.95 v 0.1 c -302.35,-8.16 -554.24,90.35 -777.67,250.2 -142.88,103.01 -266.02,231.5 -369.33,417.9 -82.39,-166.2 -200.91,-287.67 -326.17,-396.42 -224,-191 -378.98,-224.61 -589.85,-251.69 -179.66,-23.08 -490.49,-2.08 -643.49,105.92 -122.824,87.34 -244.51,188.79 -339.712,306.84 -90.718,120.89 -148.094,213.21 -209.765,359.25 l -125.977,349.87 c -55.148,69.33 -92.817,135.27 -127.409,198.82 -69.677,128.01 -117.392,249.94 -148.893,374.29 -23.54,92.93 -36.823,197.89 -42.708,325 -5.577,124.53 10.873,221.64 27.994,340.04 36.515,-123.32 76.775,-255.12 133.073,-353.52 68.507,-117.4 171.715,-255.41 243.946,-319.53 19.306,-17.14 21.814,-20.78 27.148,-26.5 C 481.1,2750.94 447.129,2682.32 450,2619.99 c 5.439,-118.11 54.939,-198.76 155.794,-253.58 174.399,-95.04 238.376,-130.3 268.034,-239.59 69.25,-219.89 220.702,-407.07 379.302,-519.53 154.79,-106.86 339.77,-159.28 515.88,-157.36 152.74,1.67 276.48,36.93 395.7,117.06 78.96,53.71 147.53,124.33 207.49,213.8 44.67,66.64 80.28,132.42 110.94,209.44 89.59,216.53 301.7,247.87 385.28,14.46 18.23,-65.18 64.56,-152.78 107.56,-225.78 61,-105 169.04,-205.99 276.04,-258.99 111,-54 191.01,-69.99 369.01,-69.99 165.74,-0.28 292.22,32.99 429.95,127.02 109.11,67.11 210.97,158.48 281.77,255.02 42.65,58.15 96.3,126.07 130.47,181.31 84.33,144.39 146.39,230.94 255.01,327.54 91.2,55.38 182.05,168.33 220.18,268.49 44.82,117.71 50.52,227.97 -47.65,310.42 50.65,59.54 102.6,131.05 144.79,199.09 60.37,97.37 110.6,199.67 146.48,296.15 24.03,-69.52 28.04,-139.26 29.43,-205.92 0.58,-89.97 -6.88,-190.1 -22.46,-255.08 -29.5,-125.19 -75.8,-273.91 -121.68,-362.69 -58.46,-113.15 -105.96,-209.34 -197.92,-326.18 l -111.52,-320.37 c -4.66,-32.67 -75.15,-185.82 -138.15,-279.82 -37,-55 -134.7,-175.26 -184.7,-225.26 -111,-111 -337.01,-246.69 -433.01,-293.69 -64,-30 -85.03,-35.01 -185.03,-41.01 z M 803.581,2755.66 c -69.024,37.34 -131.413,52.25 -210.873,43.3 0.151,-0.24 0.242,-0.48 0.391,-0.72 l -0.326,0.13 c -4.855,8.51 -10.045,19.89 -16.796,34.64 -51,107 -67.982,149 -97.982,247 -36.095,116.8 -57.491,189.52 -63.867,229.04 -19.932,123.53 -23.736,233.65 -21.159,345.96 2.597,90.71 5.653,182.82 14.583,274.03 7.92,80.89 20.454,161.07 41.471,238.93 9,16 32.008,-33.95 58.008,-126.95 10,-35 23.99,-66.01 30.99,-69.01 26,-9 60.005,16.01 72.005,55.01 17,53 94.979,234.01 136.979,319.01 65.098,112.79 130.243,218.06 208.529,313.54 105.186,132.27 227.786,199.19 371.156,257.16 146.49,54.85 307.09,87.68 444.21,141.47 137.01,53.87 266.74,116.29 399.09,179.82 195.08,82.55 335.27,137.61 512.3,140.3 133.01,-0.95 279.84,-27.31 385.68,-83.33 116.24,-61.53 229.95,-113.62 337.04,-164.98 77,-38 164.99,-74.98 194.99,-83.98 369,-106 570.33,-191.77 669.01,-284.05 71.36,-66.73 146.81,-140.34 208.2,-219.79 C 4576.6,4413.54 4623.6,4276.66 4675,4125 l 25.26,-75.72 c 2.9,-15.06 19.3,-18.93 50.72,-17.25 45.04,2.41 47.04,-2.04 62.04,34.96 22.82,72.03 42.54,142.64 67.97,207.88 39.62,-98.42 51.44,-170.87 65.04,-277.86 17.79,-142.31 24.85,-270.27 20.77,-388.22 -6.7,-193.69 -43.42,-360.33 -111.79,-518.82 -19.24,-44.47 -48.82,-113.98 -60.09,-142.31 -67.39,12.62 -168.43,-7.7 -228.84,-44.73 -56.92,156.97 -82.42,183.06 -178.58,314.78 52.38,33.13 105.62,101.3 122.53,195.31 49.55,411.71 -294.79,746.89 -582.1,817.97 -37.6,8.44 -99.74,13.02 -113.93,11.59 l -245.77,347.85 -258.46,166.21 -1213.87,6.9 L 1761.07,4564 1522.98,4244.27 c -113.17,-15.33 -279.56,-56.36 -383.59,-112.43 -108.8,-58.64 -211.448,-176.84 -282.554,-314.2 -47.318,-91.41 -70.574,-234.95 -36.914,-346.55 29.484,-97.76 123.648,-200.55 187.238,-250.13 z" />
   <path style="fill:#020202" id="glassesOutline" d="m 4411.72,2040.04 c 0,0 -207.12,-203.72 -335.74,-266.02 -130.98,-62.04 -235.96,-78.71 -365.95,-78.71 -128,0 -269.42,26.59 -348.31,65.82 -109.44,54.44 -162.95,89.89 -230.99,151.76 -57.17,51.99 -98.56,102.85 -136.78,166.15 -38.63,-32.41 -79.58,-55.23 -125.53,-74.29 0,-0.1 0.39,-0.78 0.4,-0.84 l -0.59,0.78 c -63.17,-26.88 -131.49,-47.13 -207.81,-44.73 -52.17,0.14 -118.71,6.15 -177.48,30.47 -4.79,2.07 -28.78,12.83 -60.67,28.78 l -61.27,33.78 -27.99,-33.98 c -74,-89 -172.01,-175.99 -233.01,-205.99 -191,-95 -289.01,-118.03 -469.01,-110.03 -156,7 -206,19 -364,92 -122.22,55.71 -241.67,157.76 -306.052,257.81 -18.133,33.43 -36.792,58.11 -52.865,88.41 L 432.422,1820.12 c -125.859,98.59 -123.511,277.69 -81.055,378.32 24.57,55.09 81.855,104.5 144.662,146.87 l 286.002,169.66 -9.049,40.04 c -4,22 -8.008,79.02 -8.008,127.02 l 3.906,86.2 c 1.299,7.31 2.461,14.49 3.516,21.61 0.06,-0.1 0,-0.1 0.07,-0.19 5.181,63.76 15.778,110.49 49.609,187.17 20.851,47.26 56.265,102.97 94.271,158.79 23.58,34.63 48.753,67.99 77.474,97.59 49.16,39.32 74.81,60.34 143.43,105.6 88.07,58.09 206.7,112.29 334.04,140.76 185.85,40.8 397.05,18.98 581.26,-74.42 120.39,-69.43 204.86,-139.05 294.66,-240.23 65.04,-77.72 112.67,-145.01 156.84,-260.03 29.2,-107.22 48.96,-203.5 50.19,-317.64 0.8,-65.6 -13.94,-135.79 -34.63,-201.76 37.23,-30.12 96.56,-56.92 138.54,-57.88 55.34,-1.27 103.19,16.31 158.72,61.33 -37.93,136.94 -30.91,255.67 -2.28,406.32 17.7,93.33 53.52,195.57 103.19,284.11 90,160.43 238.18,273.2 396.41,347.14 158.27,73.94 336.54,85.58 514.91,80.4 184.64,-5.36 424.39,-134.5 558.8,-288.61 -0.16,-0.1 -0.23,-0.48 -0.39,-0.58 96.16,-131.72 121.65,-157.81 178.57,-314.78 25.52,-77.35 40.56,-167.46 44.4,-247.2 2.53,-64.49 -3.51,-175.34 -17.83,-237.18 40.94,-20.31 102.75,-48.57 146.15,-64.77 184.03,-74.05 283.54,-177.66 285.01,-325.55 0.71,-71.95 5.21,-148.63 -76.18,-249.17 z" />
   <g id="rightEye">
      <path style="fill:#ccebf6" id="rightEyeInner" d="m 3407.82,1982.74 c -204.94,122.8 -346.82,342.94 -384.09,541.38 -38.23,170.96 16.61,333.77 111.98,471.65 169.49,162.89 289.92,277.61 561.28,249.69 217.07,-6.11 417.81,-66.44 531.04,-233.74 116,-174 164.49,-505.2 81.49,-674.2 -57,-116 -314.48,-317.54 -443.48,-357.54 -150.63,-32 -311.96,-56.12 -458.22,2.76 z" />
      <circle style="fill:#00a9e6" id="rightIris" cx="3691.76" cy="2608.54" r="413.333" />
      <circle style="fill:#000000" id="rightPupil" cx="3692.8" cy="2612.19" r="200" />
      <circle style="fill:#ffffff" id="rightEyeReflection" cx="3833.78" cy="2578.77" r="141.667" />
   </g>
   <g id="leftEye">
      <path style="fill:#ccebf6" id="leftEyeInner" d="m 1763.55,1946.31 c -221.91,-18.66 -600.23,109.8 -674.78,275 -85.72,207.78 -119.344,456.69 -19.16,648.68 103.99,181.03 200.02,311.91 406.54,366.29 243.85,53.27 481.6,-3.56 651.36,-171.45 147.69,-165.49 202.54,-390.79 202.47,-590.08 -15.92,-157.88 -52.41,-314.1 -186.06,-402.49 -119.72,-52.36 -263.99,-128.1 -380.37,-125.95 z" />
      <circle style="fill:#00a9e6" id="leftIris" cx="1659.96" cy="2604.84" r="413.333" />
      <circle style="fill:#000000" id="leftPupil" cx="1661" cy="2608.49" r="200" />
      <circle style="fill:#ffffff" id="leftEyeReflection" cx="1801.98" cy="2575.07" r="141.667" />
   </g>
   <path style="fill:#fc6c01" id="glasses" d="m 1609.77,1801.69 c -99.72,7.31 -211.78,39.59 -308.08,84.9 -98.6,46.39 -185.37,113.76 -241.03,181.14 -38.39,38.78 -102.599,154.74 -120.1,203.75 C 893.633,2240.94 777.478,2165.28 735.026,2139.97 637.598,2073.74 528.307,1997.31 455.99,1939 c -19.114,20 -28.864,45.43 -35.524,68.67 -21.432,91.27 14.486,126.9 57.506,171.17 39.923,40.73 102.35,90.33 181.012,143.17 47.021,27.77 179.334,108.09 224.61,133.26 -18.68,95.71 -34.35,196.98 -26.888,282.69 13.482,154.84 100.761,306.72 196.094,406.18 101.09,105.46 217.32,183.61 363.73,225.77 143.1,41.2 310.29,56.99 457.43,10.1 115,-39 232.96,-107.99 306.96,-177.99 129.35,-119.49 226.07,-251.87 260.03,-413.93 28.18,-145.64 33.88,-292.89 -28.15,-426.99 63.45,-66.33 152.34,-121.56 250.16,-121.06 100.21,0.51 183.58,61.22 260.74,122.53 -35.18,88.02 -55.67,142.55 -49.74,244.4 5.31,90.96 17.23,182.73 47.72,268.03 40.01,111.9 116.65,212.63 188.22,285.74 65.24,65.73 146.84,126.44 199.67,154.1 128.05,67.06 267.63,91.73 405.34,94.14 137,1 194.05,-12.96 334.05,-81.96 171,-85 284.5,-195.52 384.5,-400.52 10,-20 32.56,-69.7 40.56,-101.7 25.03,-72.11 35.02,-153.38 34.57,-222.39 -2.34,-44.1 -6.98,-96.8 -13.41,-132.94 -11,-104 -19.33,-98.29 -23.37,-116.08 79.93,-38.71 197.22,-84.34 279.1,-119.41 46.66,-19.07 73.99,-47.01 99.68,-67.18 25.61,-20.11 40.31,-46.54 52.4,-71.29 17.31,-35.44 30.93,-97.52 16.93,-139.52 -20,-62 -32,-62.96 -97,-12.96 -173.88,106.35 -292.48,136.81 -455.51,219.07 -84.78,-105.94 -198.13,-215.54 -307.84,-277.27 -130.93,-71.61 -258.6,-89.72 -406.58,-79.82 -106.59,7.13 -209.88,41.08 -297.98,83.99 -94.76,46.92 -159.28,98.43 -229.03,171.03 -36.25,43.45 -70.13,87.17 -106.06,137.3 -79.74,-48.52 -174.65,-106.93 -267.9,-127.28 -96.96,-19.25 -179.12,-6.81 -266.6,40.43 -60.29,30 -99.38,58.79 -146.33,101.22 -26.26,-47.11 -55.47,-95.54 -85.93,-134.84 -33.71,-43.27 -72.86,-83.78 -113.64,-114.36 -43.88,-32.9 -129.7,-85.57 -195.64,-114.71 -76.48,-33.81 -212.89,-54.99 -334.11,-46.1 z m 34.24,183.34 c 149,1 254.79,18.5 384.96,119.98 100.31,78.2 162.5,178.22 197.01,288.02 40.26,128.1 51.79,303.54 -4.01,427.8 -23.57,52.48 -55.42,105.56 -89.94,145.19 -87.64,100.6 -146.97,144 -303.97,208 -82.59,23.8 -161.85,20.88 -228.45,10.09 -61.43,-11.18 -125.2,-27.95 -198.63,-62.1 -100.58,-51.73 -211.73,-168.64 -247.99,-244.02 -71.89,-149.42 -91.32,-329.09 -54.08,-453.59 33.37,-109.89 74.36,-164.58 117.11,-219.19 58.8,-75.11 146.27,-131.03 220.96,-168.23 66.26,-33 133.37,-45.16 207.03,-51.95 z m 2052.47,11.58 c 146.38,0 291.34,61.67 392.95,145.86 134.3,112.99 211.25,274.8 210.57,457.53 -0.81,134.63 -55.55,273.16 -149.04,384.15 -76.88,91.82 -198.28,156.22 -298.94,189.87 -118.47,39.61 -270.94,32.85 -394.01,-22 C 3406.08,3128.87 3292.02,3037 3227.02,2964 3098,2812.87 3061.08,2614.95 3104.16,2442.34 c 23.22,-93.02 105.22,-215.03 185.05,-283.82 120.68,-103.99 262.71,-161.46 407.27,-161.91 z" />
   <g id="snout">
      <path style="fill:#020202" id="snoutOutline" d="m 2834.83,3596.22 c -134.93,-19.76 -277.85,-21.69 -412.11,15.76 -92.11,25.69 -193.26,81.31 -256.7,165.1 -51,77 -72,259.01 -42,369.01 26.04,91.77 78.36,179.09 146.88,244.27 51.95,50.35 126.71,108.18 174.09,132.69 22,11 72.02,30.03 110.02,43.03 41,13 69.99,28 69.99,36 6.85,11.77 -91.55,63.73 -155.99,72.99 -37,7 -268.98,13.98 -308.98,8.98 -60,-8 -161.02,-44.96 -263.02,-95.96 -98,-49 -181.03,-118.01 -249.03,-208.01 -22.73,-30.76 -62.01,-116.1 -87.63,-185.09 -13.25,-35.88 -23.69,-84.07 -29.36,-129.76 -3.63,-29.3 -7.63,-69.74 -82.94,-105.79 -27.37,-13.11 -64.87,-24.85 -116.02,-36.39 -21.08,-4.76 -62.07,-11.13 -72.92,5.14 -10.84,16.28 0,32.62 14.13,41.99 45.02,29.88 86.26,30.78 130.93,51.04 29.51,13.49 63.52,33.55 66.21,75.92 5.19,36.97 9.21,74.91 21.61,110.93 4.63,14.35 8.86,27.64 12.05,37.96 -0,0 -0.15,-0 -0.2,0 23.38,70.13 57.27,142.46 100.13,208.98 61.78,95.88 175.02,195.98 291.02,250.98 93,43 128.98,73.99 183.98,155.99 66,98 137.02,163.99 224.02,205.99 207,102 390.02,134.03 527.02,93.03 186,-57 274.02,-113.98 416.02,-272.98 98,-110 114.96,-124.01 181.96,-155.01 159,-72 325.74,-249.82 383.01,-400.98 15.79,-41.68 28.95,-71.13 33.01,-88.15 2.71,-11.45 6.56,-21.74 11,-62.83 8,-100 20.08,-134.97 55.08,-164.97 52.39,-43.52 99.5,-18.07 148.96,-29.3 16.66,-3.78 25.11,-14.7 31.31,-24.21 v -10.29 c -8.44,-15.9 -58.19,-33.32 -118.29,-34.25 -101,-2 -152.04,56.05 -176.04,201.05 -28,168 -125.06,320.97 -278.06,436.97 -42.96,31.98 -83.62,44.75 -121.94,61.98 -119,53 -178.02,70.97 -316.02,72.92 -74,1.05 -112.08,3.93 -165.04,-6.9 -48.93,-10.01 -85.7,-23.76 -119.92,-37.96 -16,-8 -39,-21.03 -50,-29.03 -19,-15 -17.08,-16.97 47.92,-45.97 148,-68 212,-118.06 322,-253.06 122,-150 157.87,-292.88 109.05,-432.94 -18.25,-52.34 -27.22,-87.35 -58.79,-123.76 -72.05,-83.1 -186.41,-141.74 -330.4,-165.11 z" />
      <path style="fill:#f9361e" id="tongueOuter" d="m 2530,5076 c -141.9,-37.16 -341.88,-126.36 -381.62,-261.38 124.02,-29.14 304.54,-2.88 428.12,45.78 70.46,20.79 141.38,12.61 221.9,-17.56 130.04,-48.72 262.89,-51.5 393.6,-35.84 -80.26,137 -193.87,214.42 -328.26,259.6 -138,45 -205.74,43.4 -333.74,9.4 z m 283,-100 c 53,-14 104,-29 114,-35 30,-17 -33,-36 -73,-22 -17,6 -40,11 -53,11 -12,0 -36,7 -53,16 -25,13 -43,14 -107,6 -42,-6 -101,-20 -131,-31 -31,-11 -79,-20 -110,-20 h -55 l 35,18 c 68,36 207,71 321,80 9,0 60,-10 112,-23 z" />
      <path style="fill:#e76658" id="tongueInner" d="m 2591,5019 c -126.74,-20.12 -254.48,-57.55 -341,-149 0,-16 233,1 290,22 90.82,42.58 163.9,29.03 246.76,11.94 89.03,-18.14 191.39,-37.13 272.23,-38.99 -61.32,101.97 -251.8,163.39 -358.99,164.05 -25,-1 -74,-5 -109,-10 z" />
      <path style="fill:#414141" id="noseMainPartShadow" d="m 2250,3769.99 c -67.21,118.12 -40.99,251.49 13.08,368.03 13.03,-40.45 75.89,-108.16 137.89,-111.16 73.44,-3.55 129.01,12.15 136.01,106.15 6,79 -27.96,136 -95.96,161 -24.26,10.68 -51.99,6.3 -78,0 -10.71,-2.03 -16.18,-1.09 -25,2.02 -16,10 -7.03,35 28.97,75 47,52 109.99,87.96 169.99,98.96 27,4 87.03,14.09 135.03,14.88 73,1.21 96.98,-8.86 144.98,-29.86 69.31,-31.58 107.98,-70.26 132.92,-105.25 11.72,-18.26 3.9,-34.13 -9.94,-41.78 -48.22,-26.66 -107.15,-50.37 -125.65,-104.43 -12.48,-47.05 -18.39,-103.38 4.69,-140.56 18.97,-22.83 44.3,-33.57 71.35,-36.13 42.72,-4.04 89.72,12.26 122.66,33.14 25,16 51.99,38 58.99,50 7,11 15.98,19.98 19.98,19.98 15,0 52.02,-85.52 52.93,-168.52 1.09,-99 -29.37,-155.52 -103.9,-204.52 -110.53,-72.66 -246.17,-105.32 -378.38,-101.35 -159.35,4.78 -328.14,11.03 -412.64,114.4 z" />
      <path style="fill:#5e5f5e" id="noseHighlight" d="m 2222.08,3822.23 c 5.14,-21.42 21.16,-45.77 37.93,-63.88 53.85,-58.14 182.68,-85.69 277.68,-25.69 42,27 64.1,91.93 23.31,127.34 -50.64,43.96 -315.14,133.72 -337.24,89.98 -23.12,-45.75 -12.18,-83.98 -1.68,-127.75 z" />
   </g>
</svg>