<svg viewBox="0 0 100 75" version="1.1" width="100" height="75" xmlns="http://www.w3.org/2000/svg">
   <g fill="#f1b31c">
      <rect x="18.057142" y="64.953247" width="64" height="7.2667999" />
   </g>
   <g fill="#fcea2b">
      <path d="m 21.057143,24.329246 c 2.7614,0 5,2.2386 5,5 0,2.7614 -2.2386,5 -5,5" />
      <path d="m 79.057143,34.329246 c -2.7614,0 -5,-2.2386 -5,-5 0,-2.7614 2.2386,-5 5,-5" />
      <path
         d="m 79.024543,30.823746 c 0,9.0811 -7.3617,16.4428 -16.4428,16.4428 h -0.2866 c -9.0811,0 -11.4428,-7.3617 -11.4428,-16.4428 h -2.0738 c 0,9.0811 -2.3617,16.4428 -11.4428,16.4428 h 0.1643 c -5.3121,0 -10.0359,-2.519 -13.0419,-6.4277 -2.1329,-2.7733 -3.401,-6.2461 -3.401,-10.0151 v -6.4945 40.624 h 58 v -40.624" />
   </g>
   <g fill="none" stroke="#000000" stroke-linecap="round" stroke-linejoin="round" stroke-miterlimit="10"
      stroke-width="2">
      <rect x="18.057142" y="64.953247" width="64" height="7.2667999" />
      <path d="m 21.057143,24.329246 c 2.7614,0 5,2.2386 5,5 0,2.7614 -2.2386,5 -5,5" />
      <path d="m 79.057143,34.329246 c -2.7614,0 -5,-2.2386 -5,-5 0,-2.7614 2.2386,-5 5,-5" />
      <path
         d="m 47.860735,34.042671 c -0.5876,7.4597 -2.602492,13.223875 -10.524992,13.223875 h 0.1643 c -5.3121,0 -10.0359,-2.519 -13.0419,-6.4277 -2.1329,-2.7733 -3.401,-6.2461 -3.401,-10.0151 v -6.4945 40.624 h 58 v -40.624" />
      <path
         d="m 79.024543,30.823746 c 0,9.0811 -7.3617,16.4428 -16.4428,16.4428 h -0.2866 c -7.9061,0 -9.778554,-5.674866 -10.374154,-13.111266" />
   </g>
   <g fill="#ff5a14">
      <path
         d="m 52.975683,16.881968 h 9.871094 v 5.766796 H 52.975683 V 33.896616 H 46.845215 V 22.648764 h -9.923048 v -5.766796 h 9.923048 V 6.3614598 h 6.130468 z" />
      <path
         d="M 7.4483679,14.974871 10.669786,16.9925 q -2.3831113,3.454386 -2.4756781,7.204055 l -0.015245,3.958302 -5.546831,-0.02136 0.013841,-3.593721 q 0.03567,-2.499879 1.3742146,-5.203076 1.3646868,-2.729138 3.4282805,-4.361826 z m 8.7499301,0.0337 3.221418,2.017629 q -2.383112,3.454386 -2.475679,7.204055 l -0.01525,3.958302 -5.54683,-0.02136 0.01384,-3.593721 q 0.03567,-2.499879 1.374215,-5.203076 1.364686,-2.729138 3.42828,-4.361826 z" />
      <path
         d="m 84.672396,28.692265 -3.231668,-2.001171 q 2.339484,-3.414382 2.412858,-7.216557 l -0.0051,-4.114578 5.546868,-0.0069 0.0045,3.593746 q 0.0034,2.682288 -1.373439,5.418383 -1.35078,2.710022 -3.353968,4.327109 z m 8.697904,-0.01087 -3.231667,-2.001171 q 2.339483,-3.414382 2.412857,-7.216557 l -0.0051,-4.114578 5.546868,-0.0069 0.0045,3.593745 q 0.0034,2.682288 -1.373438,5.418383 -1.35078,2.710022 -3.353969,4.327109 z" />
   </g>
</svg>